<svg xmlns="http://www.w3.org/2000/svg" viewBox="0 0 205.01 183.26"><g stroke="#000" stroke-width=".95" fill="none"><path d="M145.44 425.63v16.5l128.25-.93s-9.2 29.32-65.1 82.45l.9 6.4s81.7-30.3 93.4 29.32c11.7 59.48-26.5 82.26-43.1 91.6-34 19.18-85.2-.9-112.7-15.57l-9.1 10.08s87.7 48.84 142 11c41-28.64 49.6-80.25 32.9-117.26-6.7-14.68-30.3-38.47-69.7-31.14 34.8-34.8 61.3-85.2 61.3-85.2zm355.86.4c-8.93-3.2-79.7-17.4-107.18 76.95-28.78 98.82 2.75 176.8 18.32 199.7 15.57 22.9 40.3 43.05 105.35 32.98l-1.9-20.16s-68.9 21.3-93.5-27.48c-22.7-45.04-38.8-135.53-1.9-212.52 12.4-25.8 41.2-42.14 80.6-35.72v-13.74zm81.35 115.2c-13.1.17-32.3 10.6-37.88 28.92-1.68 5.55-2.77 18.6-2.77 18.6l14.35.64s.1-10.7 1.46-15.8c2.6-9.5 12.8-19.7 25.5-19.3 15.2.5 24.3 6.3 28.7 22.2 7.9 28 6.1 71.2 6.1 71.2-13.4-8.4-45.7-19.4-74.1 10.9-18.9 20.1-18.8 59.5 4.4 72.2 25.8 14.1 63.3 1.7 71-11.4v17.3l13.8.2s-.4-74.9-3.6-113.9c-1.4-17.2.3-25.6-6.6-51.2-3.4-12.8-19.2-31.1-40-30.9zm4.67 109.84c4.4 0 21.87.3 30.62 10.93l1.25 39.05s-23.3 35.97-57.5 21.56c-21.5-9-23.5-38.1-7.5-55.9 9.3-10.3 25.3-15.6 33.1-15.6zM677.5 448.1s1.14 42.93 2.27 95.42l-42.42.64.36 17.57 42.5-.5c1.6 75.3 2.8 162.32.6 175.06h16.1s-.4-93.7-2.1-175.3l36.2-.4.4-17.9-36.9.5c-1-43.7-2.5-81.5-4.6-95.2h-12.2zM465.17 786.88c-13.1.16-32.3 10.58-37.87 28.9-1.68 5.56-2.76 18.62-2.76 18.62l14.34.63s.1-10.7 1.46-15.8c2.52-9.5 12.77-19.66 25.47-19.22 15.2.6 24.3 6.3 28.7 22.2 7.9 28 6.1 71.2 6.1 71.2-13.4-8.3-45.7-19.4-74.1 10.9-18.9 20.2-18.8 59.5 4.4 72.2 25.8 14.1 63.3 1.7 71-11.4v17.4l13.7.3S515.2 908 512 869c-1.44-17.12.28-25.53-6.6-51.2-3.44-12.75-19.2-31.05-40.07-30.8zm4.68 109.83c4.38 0 21.87.4 30.6 11l1.26 39.1s-23.2 36-57.4 21.6c-21.4-9-23.5-38.1-7.5-55.9 9.3-10.3 25.3-15.6 33.1-15.6zm83.92-107.8l-8.17 9.1 82.42 88.7c-43.25 45.3-82.8 86.6-82.8 86.6l10.94 11c13.77-14.7 47.52-51 81.3-87.3 33.7 36.3 67.37 72.5 81.1 87.2l10.97-10.9s-39.46-41.2-82.65-86.4l82.25-88.5-8.17-9.1c-19.2 20.4-51.67 54.5-83.5 87.8-31.9-33.4-64.45-67.5-83.68-87.9z" transform="matrix(.31032 0 0 .30256 -22.063 -127.8)"/><path d="M364.96 636.36c-.27 0-.56.02-.87.07-.7.12-1.5.4-2.5.83-39.5 19-53.9 42.5-66.3 62.48-2.2 3.42-5.7 2.65-10.3 2.6-30.2-.25-71.6 5.66-99.7 13.48-4.9 1.35-8.3-1.64-10.6-4.4-20.4-23.83-60.4-46.1-66.2-49.03-6.8-3.4-9.1 5.6-9.1 5.6v135.2c-13.3 4.2-21.8 8.1-21.8 8.1l9.4 11.4c6.3-1.2 9.5 2.2 12.3 8V1029l17-2.26s-2.8-82.76-4.6-168.26c5.4 8.7 13.5 17.2 27 23.4 10.5 4.84 37.8 15.3 63.2-.1 26.9-16.34 25.1-45.45 37.1-53.6 3.5-2.37 11.3-3.4 14.5-1.3 13.4 8.9 14.7 41.7 49.5 45.8 33.9 3.98 51.7-9.3 62.9-26 3.4 75.4 5.8 151.95 3.8 186.33l13.6.6c-2.1-68.3-5.2-137.2-8-204.6 7.6-17.5 6.9-35.4 21.7-35.1l4.4-11.1c-8.8-3.2-18.3-5.6-28.3-6.9-1.8-44.6-3.4-88.4-4.3-130.7-.1-3-.2-8.7-4.3-8.7zM355.98 654s3.28 54.7 6.72 120.75c-3.2-.2-6.4-.28-9.63-.28-28.7.05-58.63 8-82.36 24.74-15 10.7-13.9 14.2-28.5 14.8-14.1.7-16.6-3.4-39.6-13.4-29.6-12.8-65.8-7.5-91.6-.6-.7-52.8-.7-99.3 1.1-118.3 28.3 10.2 57.8 41.2 57.8 41.2l-7.7 4.1c0 3.2 4 10.2 6.6 10.2 10.1-5.8 21.5-9.1 32.8-12.4 0 0 4.9 24.8 6.9 28.3 3.9 7 12.3 5.8 12.9-3.2.3-4.5-1.4-14-2.4-28.7 5.2-1.1 8.1-1.6 13.5-1.5.7 7.6 5 42.7 5 42.7 2.1 17.5 17.5 13.9 16.1-1.5l-4-42.6c5.2-.8 10.9-1.8 16.2-1.3l3.5 29.3c1.4 12.2 14.2 8.5 13.6.5l-2-30.3s23.5-.9 35.9 2.4c2.4-.5 3.8-6.4 3.8-6.4-4.5-2.2-10.4-3.9-15.1-5.4 12.8-23.1 37.5-48.44 51-52.5zm-8.65 129.6c1.2 0 2.4.03 3.63.07 4.56.15 8.88.28 12.35 2.52.8.5 1.6 1.1 2.3 1.8.8.8 1.5 1.7 2.1 2.9l.5.9.4 1c.3.7.6 1.4.8 2.2.5 1.5.9 3.3 1.2 5.4.3 1.7.4 3.6.4 5.9 0 2.2-.1 4.6-.4 7.2-.3 2.6-.8 5.3-1.6 8.1-.5 2.1-1.2 4.3-2.1 6.4l-.9 2.1-.2.4c-5 11.4-14.3 22.8-30.6 29.4-27.1 11.2-49.3-.3-55.1-7.3-6.6-7.9-11.6-16.2-13-21.07-1.2-4.38-4.7-12.85 2.1-18.08 14.6-11.2 41.3-30.3 78.5-30.3zM159.8 803.18c25.67-.15 46.9 9.23 59.95 14.94 7.88 3.45 5.52 9.97 5.4 14.5-.16 5.06-3 13.73-7.76 22.9-5.5 10.6-20.8 27.83-49.9 23.94-44.2-5.9-52-33.26-53.3-46.85-1.6-16.3 9.9-23.1 18.5-25.6 9.4-2.6 18.4-3.7 27-3.8z" transform="matrix(.31032 0 0 .30256 -23.924 -129.615)"/><path d="M235.97 873.58c1.28-2.2 3.24-2.2 7.1-.13 3.46 1.86 10.64 1.73 13.25.13 3.93-2.4 7.88-4.46 9.46-.53 1.62 4.4.96 8.6-2.5 11.7-8.66 1.57-11 11.7-5.12 23.37 8.04 15.95 18.7 16.74 24.43 15.9 9.4-1.43 11.8-7.78 13.7-8.94 1.9-1.17 6 2.75 5.9 4.07 0 0-9 13.6-27.5 13-12-.4-20-13.14-21.6-15.5-2.1-3.15-4.5-3.05-7-.13-2.4 2.75-12.9 13.6-24.4 14.84-18.3 1.97-27.5-9.6-26.9-12.2.5-2.62 2.9-3.3 5.1-4.2 2.1-.54 5.1 9.64 17.2 8.66 11.3-.92 18.4-4.4 23.8-15.37 7.7-15.56 3.8-20.88.2-22.2-5-1.7-6.5-7.88-5.6-12.47zm-71.78-39.2c-.5 2.8 3.3 7.06 4.7 7 1.4-.08 10.9-9.4 25.3-9.8 15.5-.4 14 5.97 16.4 5.45 2.3-.53 4.3-2.65 3.9-5.3-.5-2.65-6.3-8.75-15.7-9.34-18.4-1.2-34.1 9.1-34.7 11.9zm173.9-11.24c.8 2.73-2.4 7.43-3.8 7.54-1.4.1-12.1-7.92-26.5-6.44-15.5 1.58-13.2 7.72-15.6 7.5-2.4-.22-4.7-2.07-4.6-4.75.1-2.7 5.1-9.5 14.3-11.3 18-3.5 34.9 4.6 35.9 7.4z" transform="matrix(.31032 0 0 .30256 -23.924 -129.615)"/></g></svg>