<?xml version="1.0" encoding="UTF-8" standalone="no"?>
<svg
   xmlns:dc="http://purl.org/dc/elements/1.1/"
   xmlns:cc="http://creativecommons.org/ns#"
   xmlns:rdf="http://www.w3.org/1999/02/22-rdf-syntax-ns#"
   xmlns:svg="http://www.w3.org/2000/svg"
   xmlns="http://www.w3.org/2000/svg"
   xmlns:sodipodi="http://sodipodi.sourceforge.net/DTD/sodipodi-0.dtd"
   xmlns:inkscape="http://www.inkscape.org/namespaces/inkscape"
   width="1080"
   height="1920"
   id="svg2"
   version="1.1"
   inkscape:version="0.91 r13725"
   sodipodi:docname="pattern.svg">
  <metadata
     id="metadata334">
    <rdf:RDF>
      <cc:Work
         rdf:about="">
        <dc:format>image/svg+xml</dc:format>
        <dc:type
           rdf:resource="http://purl.org/dc/dcmitype/StillImage" />
        <dc:title></dc:title>
      </cc:Work>
    </rdf:RDF>
  </metadata>
  <defs
     id="defs332" />
  <sodipodi:namedview
     pagecolor="#ffffff"
     bordercolor="#666666"
     borderopacity="1"
     objecttolerance="10"
     gridtolerance="10"
     guidetolerance="10"
     inkscape:pageopacity="0"
     inkscape:pageshadow="2"
     inkscape:window-width="640"
     inkscape:window-height="480"
     id="namedview330"
     showgrid="false"
     borderlayer="true"
     inkscape:zoom="0.38146965"
     inkscape:cx="1184.4523"
     inkscape:cy="903.42277"
     inkscape:current-layer="svg2" />
  <path
     d="m 1272.9044,721.07381 7.041,-152.88653 -5.6328,369.83979 z"
     id="path4"
     inkscape:connector-curvature="0"
     style="fill:#b9beed;stroke:#b9beed;stroke-width:1.08110464" />
  <path
     d="m -110.64357,208.53995 65.48089,516.9021 -33.092493,492.14905 z"
     id="path6"
     inkscape:connector-curvature="0"
     style="fill:#94dee9;stroke:#94dee9;stroke-width:1.08110464" />
  <path
     d="M 1159.545,1212.4949 1274.3126,938.02707 1147.5755,1408.3352 Z"
     id="path8"
     inkscape:connector-curvature="0"
     style="fill:#bbaced;stroke:#bbaced;stroke-width:1.08110464" />
  <path
     d="m 1147.5755,1408.3352 126.7371,-470.30813 -103.502,623.19463 z"
     id="path10"
     inkscape:connector-curvature="0"
     style="fill:#c1a8ee;stroke:#c1a8ee;stroke-width:1.08110464" />
  <path
     d="m -78.255173,1217.5911 -26.755637,213.3131 -26.75564,130.3175 z"
     id="path12"
     inkscape:connector-curvature="0"
     style="fill:#aacaeb;stroke:#aacaeb;stroke-width:1.08110464" />
  <path
     d="m -110.64357,208.53995 32.388397,1009.05115 -53.511277,343.6306 z"
     id="path14"
     inkscape:connector-curvature="0"
     style="fill:#95d7e9;stroke:#95d7e9;stroke-width:1.08110464" />
  <path
     d="m 271.68039,1836.4174 192.21812,10.1925 -258.40311,13.1046 z"
     id="path16"
     inkscape:connector-curvature="0"
     style="fill:#b6c2ed;stroke:#b6c2ed;stroke-width:1.08110464" />
  <path
     d="m 463.89851,1846.6099 184.47315,-36.4016 71.8177,55.3304 z"
     id="path18"
     inkscape:connector-curvature="0"
     style="fill:#b4b5ec;stroke:#b4b5ec;stroke-width:1.08110464" />
  <path
     d="m 1170.8106,1561.2217 103.502,-623.19463 -67.5932,983.57003 z"
     id="path20"
     inkscape:connector-curvature="0"
     style="fill:#c8a8ee;stroke:#c8a8ee;stroke-width:1.08110464" />
  <path
     d="m 1138.4222,1679.8908 32.3884,-118.6691 35.9088,360.3754 z"
     id="path22"
     inkscape:connector-curvature="0"
     style="fill:#cca8ee;stroke:#cca8ee;stroke-width:1.08110464" />
  <path
     d="m 720.18936,1865.5387 142.93141,16.0167 225.31063,64.7947 z"
     id="path24"
     inkscape:connector-curvature="0"
     style="fill:#c6a8ee;stroke:#c6a8ee;stroke-width:1.08110464" />
  <path
     d="m 863.12077,1881.5554 96.46118,-149.9744 128.84945,214.7691 z"
     id="path26"
     inkscape:connector-curvature="0"
     style="fill:#c8a8ee;stroke:#c8a8ee;stroke-width:1.08110464" />
  <path
     d="M 205.4954,1859.7145 463.89851,1846.6099 25.24689,1947.0782 Z"
     id="path28"
     inkscape:connector-curvature="0"
     style="fill:#b8c8ed;stroke:#b8c8ed;stroke-width:1.08110464" />
  <path
     d="M -62.765071,1647.8574 25.24689,1947.0782 -38.825818,1990.76 Z"
     id="path30"
     inkscape:connector-curvature="0"
     style="fill:#b8cbeb;stroke:#b8cbeb;stroke-width:1.08110464" />
  <path
     d="m -131.76645,1561.2217 69.001379,86.6357 23.939253,342.9026 z"
     id="path32"
     inkscape:connector-curvature="0"
     style="fill:#b3cbeb;stroke:#b3cbeb;stroke-width:1.08110464" />
  <path
     d="M 25.24689,1947.0782 463.89851,1846.6099 -38.825818,1990.76 Z"
     id="path34"
     inkscape:connector-curvature="0"
     style="fill:#bacaeb;stroke:#bacaeb;stroke-width:1.08110464" />
  <path
     d="M 463.89851,1846.6099 720.18936,1865.5387 -38.825818,1990.76 Z"
     id="path36"
     inkscape:connector-curvature="0"
     style="fill:#b7beed;stroke:#b7beed;stroke-width:1.08110464" />
  <path
     d="M 720.18936,1865.5387 1088.4314,1946.3501 -38.825818,1990.76 Z"
     id="path38"
     inkscape:connector-curvature="0"
     style="fill:#b7b7ec;stroke:#b7b7ec;stroke-width:1.08110464" />
  <path
     d="m 1138.4222,1679.8908 68.2972,241.7063 -118.288,24.753 z"
     id="path40"
     inkscape:connector-curvature="0"
     style="fill:#cea8ee;stroke:#cea8ee;stroke-width:1.08110464" />
  <path
     d="m 170.29061,1793.4636 35.20479,66.2509 -180.24851,87.3637 z"
     id="path42"
     inkscape:connector-curvature="0"
     style="fill:#b8caeb;stroke:#b8caeb;stroke-width:1.08110464" />
  <path
     d="M -62.765071,1647.8574 170.29061,1793.4636 25.24689,1947.0782 Z"
     id="path44"
     inkscape:connector-curvature="0"
     style="fill:#b6cbeb;stroke:#b6cbeb;stroke-width:1.08110464" />
  <path
     d="m 959.58195,1731.581 178.84025,-51.6902 -49.9908,266.4593 z"
     id="path46"
     inkscape:connector-curvature="0"
     style="fill:#c8a8ee;stroke:#c8a8ee;stroke-width:1.08110464" />
  <path
     d="m 544.16543,1730.1249 104.20623,80.0834 -184.47315,36.4016 z"
     id="path48"
     inkscape:connector-curvature="0"
     style="fill:#b3b9ed;stroke:#b3b9ed;stroke-width:1.08110464" />
  <path
     d="m 271.68039,1836.4174 76.04234,-222.0494 116.17578,232.2419 z"
     id="path50"
     inkscape:connector-curvature="0"
     style="fill:#b3bfed;stroke:#b3bfed;stroke-width:1.08110464" />
  <path
     d="m 720.18936,1865.5387 97.86937,-141.9661 45.06204,157.9828 z"
     id="path52"
     inkscape:connector-curvature="0"
     style="fill:#bfa8ee;stroke:#bfa8ee;stroke-width:1.08110464" />
  <path
     d="m 818.05873,1723.5726 141.52322,8.0084 -96.46118,149.9744 z"
     id="path54"
     inkscape:connector-curvature="0"
     style="fill:#c2a8ee;stroke:#c2a8ee;stroke-width:1.08110464" />
  <path
     d="m 648.37166,1810.2083 169.68707,-86.6357 -97.86937,141.9661 z"
     id="path56"
     inkscape:connector-curvature="0"
     style="fill:#b9aced;stroke:#b9aced;stroke-width:1.08110464" />
  <path
     d="m 170.29061,1793.4636 101.38978,42.9538 -66.18499,23.2971 z"
     id="path58"
     inkscape:connector-curvature="0"
     style="fill:#b6c8ec;stroke:#b6c8ec;stroke-width:1.08110464" />
  <path
     d="m 347.72273,1614.368 196.4427,115.7569 -80.26692,116.485 z"
     id="path60"
     inkscape:connector-curvature="0"
     style="fill:#b1bded;stroke:#b1bded;stroke-width:1.08110464" />
  <path
     d="M 170.29061,1793.4636 347.72273,1614.368 271.68039,1836.4174 Z"
     id="path62"
     inkscape:connector-curvature="0"
     style="fill:#b3c6ed;stroke:#b3c6ed;stroke-width:1.08110464" />
  <path
     d="m -62.765071,1647.8574 248.545781,-80.0834 -15.4901,225.6896 z"
     id="path64"
     inkscape:connector-curvature="0"
     style="fill:#b1cbeb;stroke:#b1cbeb;stroke-width:1.08110464" />
  <path
     d="m 185.78071,1567.774 161.94202,46.594 -177.43212,179.0956 z"
     id="path66"
     inkscape:connector-curvature="0"
     style="fill:#b0c7ed;stroke:#b0c7ed;stroke-width:1.08110464" />
  <path
     d="m 544.16543,1730.1249 264.74001,-107.0206 -160.53378,187.104 z"
     id="path68"
     inkscape:connector-curvature="0"
     style="fill:#b2b1ed;stroke:#b2b1ed;stroke-width:1.08110464" />
  <path
     d="m 808.90544,1623.1043 9.15329,100.4683 -169.68707,86.6357 z"
     id="path70"
     inkscape:connector-curvature="0"
     style="fill:#b9aaee;stroke:#b9aaee;stroke-width:1.08110464" />
  <path
     d="m 678.6477,1419.2557 51.39899,59.6986 -185.88126,251.1706 z"
     id="path72"
     inkscape:connector-curvature="0"
     style="fill:#abb2ed;stroke:#abb2ed;stroke-width:1.08110464" />
  <path
     d="m 347.72273,1614.368 45.76621,-116.485 150.67649,232.2419 z"
     id="path74"
     inkscape:connector-curvature="0"
     style="fill:#aebded;stroke:#aebded;stroke-width:1.08110464" />
  <path
     d="m 730.04669,1478.9543 78.85875,144.15 -264.74001,107.0206 z"
     id="path76"
     inkscape:connector-curvature="0"
     style="fill:#b1afed;stroke:#b1afed;stroke-width:1.08110464" />
  <path
     d="m 1018.0218,1506.6194 120.4004,173.2714 -178.84025,51.6902 z"
     id="path78"
     inkscape:connector-curvature="0"
     style="fill:#c3a8ee;stroke:#c3a8ee;stroke-width:1.08110464" />
  <path
     d="m 818.05873,1723.5726 -9.15329,-100.4683 150.67651,108.4767 z"
     id="path80"
     inkscape:connector-curvature="0"
     style="fill:#bea8ee;stroke:#bea8ee;stroke-width:1.08110464" />
  <path
     d="M 808.90544,1623.1043 1018.0218,1506.6194 959.58195,1731.581 Z"
     id="path82"
     inkscape:connector-curvature="0"
     style="fill:#c0a8ee;stroke:#c0a8ee;stroke-width:1.08110464" />
  <path
     d="M 393.48894,1497.883 678.6477,1419.2557 544.16543,1730.1249 Z"
     id="path84"
     inkscape:connector-curvature="0"
     style="fill:#acbaed;stroke:#acbaed;stroke-width:1.08110464" />
  <path
     d="m -105.01081,1430.9042 290.79152,136.8698 -248.545781,80.0834 z"
     id="path86"
     inkscape:connector-curvature="0"
     style="fill:#aecaeb;stroke:#aecaeb;stroke-width:1.08110464" />
  <path
     d="m 1018.0218,1506.6194 152.7888,54.6023 -32.3884,118.6691 z"
     id="path88"
     inkscape:connector-curvature="0"
     style="fill:#c5a8ee;stroke:#c5a8ee;stroke-width:1.08110464" />
  <path
     d="M -105.01081,1430.9042 82.982741,1355.189 185.78071,1567.774 Z"
     id="path90"
     inkscape:connector-curvature="0"
     style="fill:#accaeb;stroke:#accaeb;stroke-width:1.08110464" />
  <path
     d="m 858.89624,1377.0299 159.12556,129.5895 -209.11636,116.4849 z"
     id="path92"
     inkscape:connector-curvature="0"
     style="fill:#bca8ee;stroke:#bca8ee;stroke-width:1.08110464" />
  <path
     d="m -131.76645,1561.2217 26.75564,-130.3175 42.245739,216.9532 z"
     id="path94"
     inkscape:connector-curvature="0"
     style="fill:#aecaeb;stroke:#aecaeb;stroke-width:1.08110464" />
  <path
     d="m 185.78071,1567.774 207.70823,-69.891 -45.76621,116.485 z"
     id="path96"
     inkscape:connector-curvature="0"
     style="fill:#adc2ed;stroke:#adc2ed;stroke-width:1.08110464" />
  <path
     d="m 730.04669,1478.9543 128.84955,-101.9244 -49.9908,246.0744 z"
     id="path98"
     inkscape:connector-curvature="0"
     style="fill:#b6a8ee;stroke:#b6a8ee;stroke-width:1.08110464" />
  <path
     d="m 457.56166,1342.0843 221.08604,77.1714 -285.15876,78.6273 z"
     id="path100"
     inkscape:connector-curvature="0"
     style="fill:#a9bced;stroke:#a9bced;stroke-width:1.08110464" />
  <path
     d="m 1018.0218,1506.6194 129.5537,-98.2842 23.2351,152.8865 z"
     id="path102"
     inkscape:connector-curvature="0"
     style="fill:#c3a8ee;stroke:#c3a8ee;stroke-width:1.08110464" />
  <path
     d="m 304.06879,1343.5404 89.42015,154.3426 -207.70823,69.891 z"
     id="path104"
     inkscape:connector-curvature="0"
     style="fill:#acc3ed;stroke:#acc3ed;stroke-width:1.08110464" />
  <path
     d="M 82.982741,1355.189 304.06879,1343.5404 185.78071,1567.774 Z"
     id="path106"
     inkscape:connector-curvature="0"
     style="fill:#abc8ec;stroke:#abc8ec;stroke-width:1.08110464" />
  <path
     d="m 1114.4829,1302.0427 33.0926,106.2925 -129.5537,98.2842 z"
     id="path108"
     inkscape:connector-curvature="0"
     style="fill:#c0a8ee;stroke:#c0a8ee;stroke-width:1.08110464" />
  <path
     d="m 858.89624,1377.0299 255.58666,-74.9872 -96.4611,204.5767 z"
     id="path110"
     inkscape:connector-curvature="0"
     style="fill:#bca8ee;stroke:#bca8ee;stroke-width:1.08110464" />
  <path
     d="M -45.16268,725.44205 -6.4374201,904.53769 -78.255173,1217.5911 Z"
     id="path112"
     inkscape:connector-curvature="0"
     style="fill:#95d9e9;stroke:#95d9e9;stroke-width:1.08110464" />
  <path
     d="m 304.06879,1343.5404 153.49287,-1.4561 -64.07272,155.7987 z"
     id="path114"
     inkscape:connector-curvature="0"
     style="fill:#a8beed;stroke:#a8beed;stroke-width:1.08110464" />
  <path
     d="m 678.6477,1419.2557 180.24854,-42.2258 -128.84955,101.9244 z"
     id="path116"
     inkscape:connector-curvature="0"
     style="fill:#b2aaed;stroke:#b2aaed;stroke-width:1.08110464" />
  <path
     d="m 1114.4829,1302.0427 45.0621,-89.5478 -11.9695,195.8403 z"
     id="path118"
     inkscape:connector-curvature="0"
     style="fill:#bfa8ee;stroke:#bfa8ee;stroke-width:1.08110464" />
  <path
     d="m 849.74304,1184.8297 9.1532,192.2002 -180.24854,42.2258 z"
     id="path120"
     inkscape:connector-curvature="0"
     style="fill:#b1a8ee;stroke:#b1a8ee;stroke-width:1.08110464" />
  <path
     d="m 457.56166,1342.0843 68.29728,-109.9327 152.78876,187.1041 z"
     id="path122"
     inkscape:connector-curvature="0"
     style="fill:#a4b9ed;stroke:#a4b9ed;stroke-width:1.08110464" />
  <path
     d="M -78.255173,1217.5911 82.982741,1355.189 -105.01081,1430.9042 Z"
     id="path124"
     inkscape:connector-curvature="0"
     style="fill:#a7caeb;stroke:#a7caeb;stroke-width:1.08110464" />
  <path
     d="m 106.92199,1197.2062 197.1468,146.3342 -221.086049,11.6486 z"
     id="path126"
     inkscape:connector-curvature="0"
     style="fill:#a5c8ec;stroke:#a5c8ec;stroke-width:1.08110464" />
  <path
     d="m 849.74304,1184.8297 264.73986,117.213 -255.58666,74.9872 z"
     id="path128"
     inkscape:connector-curvature="0"
     style="fill:#b6a8ee;stroke:#b6a8ee;stroke-width:1.08110464" />
  <path
     d="m 525.85894,1232.1516 78.15462,-89.5478 74.63414,276.6519 z"
     id="path130"
     inkscape:connector-curvature="0"
     style="fill:#a1b5ed;stroke:#a1b5ed;stroke-width:1.08110464" />
  <path
     d="m 604.01356,1142.6038 245.72948,42.2259 -171.09534,234.426 z"
     id="path132"
     inkscape:connector-curvature="0"
     style="fill:#a7aeed;stroke:#a7aeed;stroke-width:1.08110464" />
  <path
     d="m 849.74304,1184.8297 133.7781,-94.6441 130.96176,211.8571 z"
     id="path134"
     inkscape:connector-curvature="0"
     style="fill:#b2aced;stroke:#b2aced;stroke-width:1.08110464" />
  <path
     d="m 297.02784,1114.9386 228.8311,117.213 -68.29728,109.9327 z"
     id="path136"
     inkscape:connector-curvature="0"
     style="fill:#a0beed;stroke:#a0beed;stroke-width:1.08110464" />
  <path
     d="m 297.02784,1114.9386 160.53382,227.1457 -153.49287,1.4561 z"
     id="path138"
     inkscape:connector-curvature="0"
     style="fill:#a2bfed;stroke:#a2bfed;stroke-width:1.08110464" />
  <path
     d="m 106.92199,1197.2062 190.10585,-82.2676 7.04095,228.6019 z"
     id="path140"
     inkscape:connector-curvature="0"
     style="fill:#a0c9ec;stroke:#a0c9ec;stroke-width:1.08110464" />
  <path
     d="M -78.255173,1217.5911 106.92199,1197.2062 82.982741,1355.189 Z"
     id="path142"
     inkscape:connector-curvature="0"
     style="fill:#a3caeb;stroke:#a3caeb;stroke-width:1.08110464" />
  <path
     d="m 983.52114,1090.1856 176.02386,122.3093 -45.0621,89.5478 z"
     id="path144"
     inkscape:connector-curvature="0"
     style="fill:#b7abed;stroke:#b7abed;stroke-width:1.08110464" />
  <path
     d="m -110.64357,208.53995 77.450516,455.74744 -11.969626,61.15466 z"
     id="path146"
     inkscape:connector-curvature="0"
     style="fill:#94e6e9;stroke:#94e6e9;stroke-width:1.08110464" />
  <path
     d="M -6.4374201,904.53769 106.92199,1197.2062 -78.255173,1217.5911 Z"
     id="path148"
     inkscape:connector-curvature="0"
     style="fill:#98d2ea;stroke:#98d2ea;stroke-width:1.08110464" />
  <path
     d="m 492.76644,1038.4955 111.24712,104.1083 -78.15462,89.5478 z"
     id="path150"
     inkscape:connector-curvature="0"
     style="fill:#99c0ec;stroke:#99c0ec;stroke-width:1.08110464" />
  <path
     d="m 297.02784,1114.9386 195.7386,-76.4431 33.0925,193.6561 z"
     id="path152"
     inkscape:connector-curvature="0"
     style="fill:#99c4ec;stroke:#99c4ec;stroke-width:1.08110464" />
  <path
     d="M 604.01356,1142.6038 696.25015,903.08164 849.74304,1184.8297 Z"
     id="path154"
     inkscape:connector-curvature="0"
     style="fill:#9cb7ec;stroke:#9cb7ec;stroke-width:1.08110464" />
  <path
     d="M 983.52114,1090.1856 1274.3126,938.02707 1159.545,1212.4949 Z"
     id="path156"
     inkscape:connector-curvature="0"
     style="fill:#b2b2ec;stroke:#b2b2ec;stroke-width:1.08110464" />
  <path
     d="m 696.25015,903.08164 233.75968,92.45994 -80.26679,189.28812 z"
     id="path158"
     inkscape:connector-curvature="0"
     style="fill:#a4b4ed;stroke:#a4b4ed;stroke-width:1.08110464" />
  <path
     d="m 162.54556,924.19447 134.48228,190.74413 -190.10585,82.2676 z"
     id="path160"
     inkscape:connector-curvature="0"
     style="fill:#95d1eb;stroke:#95d1eb;stroke-width:1.08110464" />
  <path
     d="M -6.4374201,904.53769 162.54556,924.19447 106.92199,1197.2062 Z"
     id="path162"
     inkscape:connector-curvature="0"
     style="fill:#95d6e9;stroke:#95d6e9;stroke-width:1.08110464" />
  <path
     d="m 930.00983,995.54158 53.51131,94.64402 -133.7781,94.6441 z"
     id="path164"
     inkscape:connector-curvature="0"
     style="fill:#abb1ed;stroke:#abb1ed;stroke-width:1.08110464" />
  <path
     d="M 955.35734,1011.5582 1274.3126,938.02707 983.52114,1090.1856 Z"
     id="path166"
     inkscape:connector-curvature="0"
     style="fill:#aeb5ed;stroke:#aeb5ed;stroke-width:1.08110464" />
  <path
     d="m 930.00983,995.54158 25.34751,16.01662 28.1638,78.6274 z"
     id="path168"
     inkscape:connector-curvature="0"
     style="fill:#abb4ed;stroke:#abb4ed;stroke-width:1.08110464" />
  <path
     d="M 492.76644,1038.4955 696.25015,903.08164 604.01356,1142.6038 Z"
     id="path170"
     inkscape:connector-curvature="0"
     style="fill:#94c2eb;stroke:#94c2eb;stroke-width:1.08110464" />
  <path
     d="m 274.49678,914.73011 218.26966,123.76539 -195.7386,76.4431 z"
     id="path172"
     inkscape:connector-curvature="0"
     style="fill:#94cbeb;stroke:#94cbeb;stroke-width:1.08110464" />
  <path
     d="m 162.54556,924.19447 111.95122,-9.46436 22.53106,200.20849 z"
     id="path174"
     inkscape:connector-curvature="0"
     style="fill:#94d4eb;stroke:#94d4eb;stroke-width:1.08110464" />
  <path
     d="m 1124.3404,769.85192 149.9722,168.17515 -318.95526,73.53113 z"
     id="path176"
     inkscape:connector-curvature="0"
     style="fill:#b1bbed;stroke:#b1bbed;stroke-width:1.08110464" />
  <path
     d="m 274.49678,914.73011 212.63689,-42.95382 5.63277,166.71921 z"
     id="path178"
     inkscape:connector-curvature="0"
     style="fill:#94cdeb;stroke:#94cdeb;stroke-width:1.08110464" />
  <path
     d="M 487.13367,871.77629 696.25015,903.08164 492.76644,1038.4955 Z"
     id="path180"
     inkscape:connector-curvature="0"
     style="fill:#94c8eb;stroke:#94c8eb;stroke-width:1.08110464" />
  <path
     d="m 696.25015,903.08164 97.86928,-183.46388 135.8904,275.92382 z"
     id="path182"
     inkscape:connector-curvature="0"
     style="fill:#a4bced;stroke:#a4bced;stroke-width:1.08110464" />
  <path
     d="M 930.00983,995.54158 1124.3404,769.85192 955.35734,1011.5582 Z"
     id="path184"
     inkscape:connector-curvature="0"
     style="fill:#adbaed;stroke:#adbaed;stroke-width:1.08110464" />
  <path
     d="M 794.11943,719.61776 1124.3404,769.85192 930.00983,995.54158 Z"
     id="path186"
     inkscape:connector-curvature="0"
     style="fill:#abbded;stroke:#abbded;stroke-width:1.08110464" />
  <path
     d="M 487.13367,871.77629 614.575,731.99431 696.25015,903.08164 Z"
     id="path188"
     inkscape:connector-curvature="0"
     style="fill:#94c9eb;stroke:#94c9eb;stroke-width:1.08110464" />
  <path
     d="M -45.16268,725.44205 23.134606,833.91867 -6.4374201,904.53769 Z"
     id="path190"
     inkscape:connector-curvature="0"
     style="fill:#94dde9;stroke:#94dde9;stroke-width:1.08110464" />
  <path
     d="M 251.26162,703.60105 487.13367,871.77629 274.49678,914.73011 Z"
     id="path192"
     inkscape:connector-curvature="0"
     style="fill:#94d3eb;stroke:#94d3eb;stroke-width:1.08110464" />
  <path
     d="M -6.4374201,904.53769 23.134606,833.91867 162.54556,924.19447 Z"
     id="path194"
     inkscape:connector-curvature="0"
     style="fill:#94dce9;stroke:#94dce9;stroke-width:1.08110464" />
  <path
     d="m 1124.3404,769.85192 148.564,-48.77811 1.4082,216.95326 z"
     id="path196"
     inkscape:connector-curvature="0"
     style="fill:#b7bded;stroke:#b7bded;stroke-width:1.08110464" />
  <path
     d="m 251.26162,703.60105 23.23516,211.12906 -111.95122,9.46436 z"
     id="path198"
     inkscape:connector-curvature="0"
     style="fill:#94daeb;stroke:#94daeb;stroke-width:1.08110464" />
  <path
     d="M 23.134606,833.91867 251.26162,703.60105 162.54556,924.19447 Z"
     id="path200"
     inkscape:connector-curvature="0"
     style="fill:#94dcea;stroke:#94dcea;stroke-width:1.08110464" />
  <path
     d="m 1153.9123,162.67399 9.1533,-149.246367 116.8798,554.759657 z"
     id="path202"
     inkscape:connector-curvature="0"
     style="fill:#b8cbeb;stroke:#b8cbeb;stroke-width:1.08110464" />
  <path
     d="M 184.37253,648.27077 251.26162,703.60105 23.134606,833.91867 Z"
     id="path204"
     inkscape:connector-curvature="0"
     style="fill:#94ddea;stroke:#94ddea;stroke-width:1.08110464" />
  <path
     d="M 614.575,731.99431 794.11943,719.61776 696.25015,903.08164 Z"
     id="path206"
     inkscape:connector-curvature="0"
     style="fill:#9ac2ec;stroke:#9ac2ec;stroke-width:1.08110464" />
  <path
     d="M 794.11943,719.61776 905.3665,557.26682 1124.3404,769.85192 Z"
     id="path208"
     inkscape:connector-curvature="0"
     style="fill:#abbeed;stroke:#abbeed;stroke-width:1.08110464" />
  <path
     d="M 463.19442,592.21231 614.575,731.99431 487.13367,871.77629 Z"
     id="path210"
     inkscape:connector-curvature="0"
     style="fill:#94cfeb;stroke:#94cfeb;stroke-width:1.08110464" />
  <path
     d="m 251.26162,703.60105 211.9328,-111.38874 23.93925,279.56398 z"
     id="path212"
     inkscape:connector-curvature="0"
     style="fill:#94d1eb;stroke:#94d1eb;stroke-width:1.08110464" />
  <path
     d="M -110.64357,208.53995 2.0117353,410.20455 -33.193054,664.28739 Z"
     id="path214"
     inkscape:connector-curvature="0"
     style="fill:#94e9e9;stroke:#94e9e9;stroke-width:1.08110464" />
  <path
     d="M 726.52628,649.72682 794.11943,719.61776 614.575,731.99431 Z"
     id="path216"
     inkscape:connector-curvature="0"
     style="fill:#9bc2ec;stroke:#9bc2ec;stroke-width:1.08110464" />
  <path
     d="m -45.16268,725.44205 11.969626,-61.15466 56.32766,169.63128 z"
     id="path218"
     inkscape:connector-curvature="0"
     style="fill:#94dee9;stroke:#94dee9;stroke-width:1.08110464" />
  <path
     d="M -33.193054,664.28739 184.37253,648.27077 23.134606,833.91867 Z"
     id="path220"
     inkscape:connector-curvature="0"
     style="fill:#94dee9;stroke:#94dee9;stroke-width:1.08110464" />
  <path
     d="m 905.3665,557.26682 211.9328,-10.92047 7.0411,223.50557 z"
     id="path222"
     inkscape:connector-curvature="0"
     style="fill:#afc1ed;stroke:#afc1ed;stroke-width:1.08110464" />
  <path
     d="m 1117.2993,546.34635 155.6051,174.72746 -148.564,48.77811 z"
     id="path224"
     inkscape:connector-curvature="0"
     style="fill:#b5beed;stroke:#b5beed;stroke-width:1.08110464" />
  <path
     d="m 325.19167,525.23345 138.00275,66.97886 -211.9328,111.38874 z"
     id="path226"
     inkscape:connector-curvature="0"
     style="fill:#94d7eb;stroke:#94d7eb;stroke-width:1.08110464" />
  <path
     d="m 1117.2993,546.34635 162.6461,21.84093 -7.041,152.88653 z"
     id="path228"
     inkscape:connector-curvature="0"
     style="fill:#b8c2ed;stroke:#b8c2ed;stroke-width:1.08110464" />
  <path
     d="M 463.19442,592.21231 726.52628,649.72682 614.575,731.99431 Z"
     id="path230"
     inkscape:connector-curvature="0"
     style="fill:#94cbeb;stroke:#94cbeb;stroke-width:1.08110464" />
  <path
     d="m 726.52628,649.72682 178.84022,-92.46 -111.24707,162.35094 z"
     id="path232"
     inkscape:connector-curvature="0"
     style="fill:#a4bfed;stroke:#a4bfed;stroke-width:1.08110464" />
  <path
     d="M 63.268058,458.98263 184.37253,648.27077 -33.193054,664.28739 Z"
     id="path234"
     inkscape:connector-curvature="0"
     style="fill:#94e3e9;stroke:#94e3e9;stroke-width:1.08110464" />
  <path
     d="M 184.37253,648.27077 325.19167,525.23345 251.26162,703.60105 Z"
     id="path236"
     inkscape:connector-curvature="0"
     style="fill:#94ddeb;stroke:#94ddeb;stroke-width:1.08110464" />
  <path
     d="m 1158.8409,362.1545 -4.9286,-199.48051 126.0331,405.51329 z"
     id="path238"
     inkscape:connector-curvature="0"
     style="fill:#b8caeb;stroke:#b8caeb;stroke-width:1.08110464" />
  <path
     d="M 463.19442,592.21231 668.08633,392.00376 726.52628,649.72682 Z"
     id="path240"
     inkscape:connector-curvature="0"
     style="fill:#94d0eb;stroke:#94d0eb;stroke-width:1.08110464" />
  <path
     d="M 2.0117353,410.20455 63.268058,458.98263 -33.193054,664.28739 Z"
     id="path242"
     inkscape:connector-curvature="0"
     style="fill:#94e7e9;stroke:#94e7e9;stroke-width:1.08110464" />
  <path
     d="m 668.08633,392.00376 237.28017,165.26306 -178.84022,92.46 z"
     id="path244"
     inkscape:connector-curvature="0"
     style="fill:#a2c6ed;stroke:#a2c6ed;stroke-width:1.08110464" />
  <path
     d="M 63.268058,458.98263 325.19167,525.23345 184.37253,648.27077 Z"
     id="path246"
     inkscape:connector-curvature="0"
     style="fill:#94e3eb;stroke:#94e3eb;stroke-width:1.08110464" />
  <path
     d="M 889.87641,392.73181 1117.2993,546.34635 905.3665,557.26682 Z"
     id="path248"
     inkscape:connector-curvature="0"
     style="fill:#adc7ed;stroke:#adc7ed;stroke-width:1.08110464" />
  <path
     d="m 668.08633,392.00376 221.79008,0.72805 15.49009,164.53501 z"
     id="path250"
     inkscape:connector-curvature="0"
     style="fill:#a6c8ec;stroke:#a6c8ec;stroke-width:1.08110464" />
  <path
     d="m 1117.2993,546.34635 41.5416,-184.19185 121.1045,206.03278 z"
     id="path252"
     inkscape:connector-curvature="0"
     style="fill:#b7c8ed;stroke:#b7c8ed;stroke-width:1.08110464" />
  <path
     d="M 325.19167,525.23345 504.73607,309.73626 463.19442,592.21231 Z"
     id="path254"
     inkscape:connector-curvature="0"
     style="fill:#94dbeb;stroke:#94dbeb;stroke-width:1.08110464" />
  <path
     d="m 504.73607,309.73626 163.35026,82.2675 -204.89191,200.20855 z"
     id="path256"
     inkscape:connector-curvature="0"
     style="fill:#94d8eb;stroke:#94d8eb;stroke-width:1.08110464" />
  <path
     d="m 354.76369,319.20066 149.97238,-9.4644 -179.5444,215.49719 z"
     id="path258"
     inkscape:connector-curvature="0"
     style="fill:#94ddea;stroke:#94ddea;stroke-width:1.08110464" />
  <path
     d="M 63.268058,458.98263 354.76369,319.20066 325.19167,525.23345 Z"
     id="path260"
     inkscape:connector-curvature="0"
     style="fill:#94e5eb;stroke:#94e5eb;stroke-width:1.08110464" />
  <path
     d="m 889.87641,392.73181 64.77674,-91.00389 162.64615,244.61843 z"
     id="path262"
     inkscape:connector-curvature="0"
     style="fill:#aec8ec;stroke:#aec8ec;stroke-width:1.08110464" />
  <path
     d="m 954.65315,301.72792 204.18775,60.42658 -41.5416,184.19185 z"
     id="path264"
     inkscape:connector-curvature="0"
     style="fill:#b1c9ec;stroke:#b1c9ec;stroke-width:1.08110464" />
  <path
     d="M 2.0117353,410.20455 194.22987,176.50658 63.268058,458.98263 Z"
     id="path266"
     inkscape:connector-curvature="0"
     style="fill:#94eae8;stroke:#94eae8;stroke-width:1.08110464" />
  <path
     d="M 194.22987,176.50658 354.76369,319.20066 63.268058,458.98263 Z"
     id="path268"
     inkscape:connector-curvature="0"
     style="fill:#94e8e9;stroke:#94e8e9;stroke-width:1.08110464" />
  <path
     d="m 686.39282,211.45207 173.20755,-85.17964 95.05278,175.45549 z"
     id="path270"
     inkscape:connector-curvature="0"
     style="fill:#a7caeb;stroke:#a7caeb;stroke-width:1.08110464" />
  <path
     d="M 668.08633,392.00376 686.39282,211.45207 889.87641,392.73181 Z"
     id="path272"
     inkscape:connector-curvature="0"
     style="fill:#a1cceb;stroke:#a1cceb;stroke-width:1.08110464" />
  <path
     d="m 686.39282,211.45207 268.26033,90.27585 -64.77674,91.00389 z"
     id="path274"
     inkscape:connector-curvature="0"
     style="fill:#a8caeb;stroke:#a8caeb;stroke-width:1.08110464" />
  <path
     d="M -110.64357,208.53995 194.22987,176.50658 2.0117353,410.20455 Z"
     id="path276"
     inkscape:connector-curvature="0"
     style="fill:#94ebe7;stroke:#94ebe7;stroke-width:1.08110464" />
  <path
     d="m 954.65315,301.72792 199.25915,-139.05393 4.9286,199.48051 z"
     id="path278"
     inkscape:connector-curvature="0"
     style="fill:#b2cbeb;stroke:#b2cbeb;stroke-width:1.08110464" />
  <path
     d="M 504.73607,309.73626 686.39282,211.45207 668.08633,392.00376 Z"
     id="path280"
     inkscape:connector-curvature="0"
     style="fill:#95d5e9;stroke:#95d5e9;stroke-width:1.08110464" />
  <path
     d="M -37.417623,81.134509 194.22987,176.50658 -110.64357,208.53995 Z"
     id="path282"
     inkscape:connector-curvature="0"
     style="fill:#94ebe7;stroke:#94ebe7;stroke-width:1.08110464" />
  <path
     d="M 954.65315,184.51492 1153.9123,162.67399 954.65315,301.72792 Z"
     id="path284"
     inkscape:connector-curvature="0"
     style="fill:#afcaeb;stroke:#afcaeb;stroke-width:1.08110464" />
  <path
     d="m 859.60037,126.27243 95.05278,58.24249 0,117.213 z"
     id="path286"
     inkscape:connector-curvature="0"
     style="fill:#accaeb;stroke:#accaeb;stroke-width:1.08110464" />
  <path
     d="m 493.47054,210.72403 192.92228,0.72804 -181.65675,98.28419 z"
     id="path288"
     inkscape:connector-curvature="0"
     style="fill:#95d9e9;stroke:#95d9e9;stroke-width:1.08110464" />
  <path
     d="m 493.47054,210.72403 11.26553,99.01223 -149.97238,9.4644 z"
     id="path290"
     inkscape:connector-curvature="0"
     style="fill:#94dde9;stroke:#94dde9;stroke-width:1.08110464" />
  <path
     d="M 348.42682,129.91259 493.47054,210.72403 354.76369,319.20066 Z"
     id="path292"
     inkscape:connector-curvature="0"
     style="fill:#94dee9;stroke:#94dee9;stroke-width:1.08110464" />
  <path
     d="m 194.22987,176.50658 154.19695,-46.59399 6.33687,189.28807 z"
     id="path294"
     inkscape:connector-curvature="0"
     style="fill:#94e3e9;stroke:#94e3e9;stroke-width:1.08110464" />
  <path
     d="M 955.35734,17.067779 1153.9123,162.67399 954.65315,184.51492 Z"
     id="path296"
     inkscape:connector-curvature="0"
     style="fill:#afcaeb;stroke:#afcaeb;stroke-width:1.08110464" />
  <path
     d="M 348.42682,129.91259 442.07155,0.32306245 493.47054,210.72403 Z"
     id="path298"
     inkscape:connector-curvature="0"
     style="fill:#94dee9;stroke:#94dee9;stroke-width:1.08110464" />
  <path
     d="M 442.07155,0.32306245 714.55665,66.57389 493.47054,210.72403 Z"
     id="path300"
     inkscape:connector-curvature="0"
     style="fill:#95dae9;stroke:#95dae9;stroke-width:1.08110464" />
  <path
     d="M 493.47054,210.72403 714.55665,66.57389 686.39282,211.45207 Z"
     id="path302"
     inkscape:connector-curvature="0"
     style="fill:#95d4e9;stroke:#95d4e9;stroke-width:1.08110464" />
  <path
     d="m 714.55665,66.57389 145.04372,59.69854 -173.20755,85.17964 z"
     id="path304"
     inkscape:connector-curvature="0"
     style="fill:#a1ccea;stroke:#a1ccea;stroke-width:1.08110464" />
  <path
     d="M -37.417623,81.134509 -2.517976,40.919219 -6.5277801,-1.2788348 43.272686,-11.84592 104.10561,-81.944441 194.22987,176.50658 Z"
     id="path306"
     inkscape:connector-curvature="0"
     style="fill:#94ebe7;stroke:#94ebe7;stroke-width:1.08110464"
     sodipodi:nodetypes="ccccccc" />
  <path
     d="m 955.35734,17.067779 207.70826,-3.640156 -9.1533,149.246367 z"
     id="path308"
     inkscape:connector-curvature="0"
     style="fill:#b2cbeb;stroke:#b2cbeb;stroke-width:1.08110464" />
  <path
     d="M 268.15991,-22.973925 348.42682,129.91259 194.22987,176.50658 Z"
     id="path310"
     inkscape:connector-curvature="0"
     style="fill:#94e5e9;stroke:#94e5e9;stroke-width:1.08110464" />
  <path
     d="M 859.60037,126.27243 955.35734,17.067779 954.65315,184.51492 Z"
     id="path312"
     inkscape:connector-curvature="0"
     style="fill:#accaeb;stroke:#accaeb;stroke-width:1.08110464" />
  <path
     d="m 104.10561,-81.944441 164.0543,58.970516 -73.93004,199.480505 z"
     id="path314"
     inkscape:connector-curvature="0"
     style="fill:#94e9e9;stroke:#94e9e9;stroke-width:1.08110464" />
  <path
     d="M 714.55665,66.57389 816.65046,-17.877711 859.60037,126.27243 Z"
     id="path316"
     inkscape:connector-curvature="0"
     style="fill:#a5caeb;stroke:#a5caeb;stroke-width:1.08110464" />
  <path
     d="M 268.15991,-22.973925 442.07155,0.32306245 348.42682,129.91259 Z"
     id="path318"
     inkscape:connector-curvature="0"
     style="fill:#94e0e9;stroke:#94e0e9;stroke-width:1.08110464" />
  <path
     d="M 816.65046,-17.877711 955.35734,17.067779 859.60037,126.27243 Z"
     id="path320"
     inkscape:connector-curvature="0"
     style="fill:#aacaeb;stroke:#aacaeb;stroke-width:1.08110464" />
  <path
     d="M 442.07155,0.32306245 816.65046,-17.877711 714.55665,66.57389 Z"
     id="path322"
     inkscape:connector-curvature="0"
     style="fill:#97d2e9;stroke:#97d2e9;stroke-width:1.08110464" />
  <path
     d="M 816.65046,-17.877711 1163.0656,13.427623 955.35734,17.067779 Z"
     id="path324"
     inkscape:connector-curvature="0"
     style="fill:#aecaeb;stroke:#aecaeb;stroke-width:1.08110464" />
  <path
     d="M 104.10561,-81.944441 816.65046,-17.877711 442.07155,0.32306245 Z"
     id="path326"
     inkscape:connector-curvature="0"
     style="fill:#94dde9;stroke:#94dde9;stroke-width:1.08110464" />
  <path
     d="M 268.15991,-22.973925 104.10561,-81.944441 442.07155,0.32306245 Z"
     id="path328"
     inkscape:connector-curvature="0"
     style="fill:#94e5e9;stroke:#94e5e9;stroke-width:1.08110464" />
</svg>
