<?xml version="1.0" encoding="UTF-8" standalone="no"?>
<svg
   xmlns:dc="http://purl.org/dc/elements/1.1/"
   xmlns:cc="http://creativecommons.org/ns#"
   xmlns:rdf="http://www.w3.org/1999/02/22-rdf-syntax-ns#"
   xmlns:svg="http://www.w3.org/2000/svg"
   xmlns="http://www.w3.org/2000/svg"
   xmlns:sodipodi="http://sodipodi.sourceforge.net/DTD/sodipodi-0.dtd"
   xmlns:inkscape="http://www.inkscape.org/namespaces/inkscape"
   width="1920"
   height="1080"
   id="svg2"
   version="1.1"
   inkscape:version="0.91 r13725"
   sodipodi:docname="pastel.svg"
   inkscape:export-filename="C:\Users\OldZombie\Janell Files\Business - 3 Cat Max LLC\bigcartelbackground_pattern.png"
   inkscape:export-xdpi="90"
   inkscape:export-ydpi="90">
  <metadata
     id="metadata436">
    <rdf:RDF>
      <cc:Work
         rdf:about="">
        <dc:format>image/svg+xml</dc:format>
        <dc:type
           rdf:resource="http://purl.org/dc/dcmitype/StillImage" />
        <dc:title></dc:title>
      </cc:Work>
    </rdf:RDF>
  </metadata>
  <defs
     id="defs434" />
  <sodipodi:namedview
     pagecolor="#ffffff"
     bordercolor="#666666"
     borderopacity="1"
     objecttolerance="10"
     gridtolerance="10"
     guidetolerance="10"
     inkscape:pageopacity="0"
     inkscape:pageshadow="2"
     inkscape:window-width="640"
     inkscape:window-height="480"
     id="namedview432"
     showgrid="false"
     borderlayer="true"
     inkscape:zoom="0.44875826"
     inkscape:cx="968.69291"
     inkscape:cy="546.99362"
     inkscape:current-layer="svg2" />
  <path
     d="m 158.88452,1204.1848 -140.875684,4.8578 425.865574,-4.0482 z"
     id="path4"
     inkscape:connector-curvature="0"
     style="fill:#dae2f4;stroke:#dae2f4;stroke-width:1.22254181" />
  <path
     d="m 90.06594,-147.89792 179.73794,0.80963 218.6002,-8.09631 z"
     id="path6"
     inkscape:connector-curvature="0"
     style="fill:#f3c2ff;stroke:#f3c2ff;stroke-width:1.22254181" />
  <path
     d="m 443.87441,1204.9944 -425.865574,4.0482 718.142134,0 z"
     id="path8"
     inkscape:connector-curvature="0"
     style="fill:#d3e4f4;stroke:#d3e4f4;stroke-width:1.22254181" />
  <path
     d="m 634.94717,1200.9463 -191.07276,4.0481 292.27656,4.0482 z"
     id="path10"
     inkscape:connector-curvature="0"
     style="fill:#c9e8f4;stroke:#c9e8f4;stroke-width:1.22254181" />
  <path
     d="m 488.40408,-155.1846 112.53862,14.57335 355.42773,-16.19261 z"
     id="path12"
     inkscape:connector-curvature="0"
     style="fill:#e3ccff;stroke:#e3ccff;stroke-width:1.22254181" />
  <path
     d="m 1138.5373,1192.85 -402.38633,16.1926 837.15783,14.5733 z"
     id="path14"
     inkscape:connector-curvature="0"
     style="fill:#c2fdf4;stroke:#c2fdf4;stroke-width:1.22254181" />
  <path
     d="m 1413.8116,1179.0862 -275.2743,13.7638 434.7715,30.7659 z"
     id="path16"
     inkscape:connector-curvature="0"
     style="fill:#c2fef4;stroke:#c2fef4;stroke-width:1.22254181" />
  <path
     d="m 1621.8866,-105.79714 106.8712,20.240756 187.8342,15.382977 z"
     id="path18"
     inkscape:connector-curvature="0"
     style="fill:#e0e2f9;stroke:#e0e2f9;stroke-width:1.22254181" />
  <path
     d="m 1445.3872,-143.84977 176.4994,38.05263 294.7054,35.623733 z"
     id="path20"
     inkscape:connector-curvature="0"
     style="fill:#e0e2fc;stroke:#e0e2fc;stroke-width:1.22254181" />
  <path
     d="m 1880.1587,330.59362 -105.252,78.53415 180.5476,97.96527 z"
     id="path22"
     inkscape:connector-curvature="0"
     style="fill:#c3edf5;stroke:#c3edf5;stroke-width:1.22254181" />
  <path
     d="M 1955.4543,507.09304 1745.76,541.90715 1957.0736,705.45248 Z"
     id="path24"
     inkscape:connector-curvature="0"
     style="fill:#c2f7f5;stroke:#c2f7f5;stroke-width:1.22254181" />
  <path
     d="m 1745.76,541.90715 -27.5274,158.68755 238.841,4.85778 z"
     id="path26"
     inkscape:connector-curvature="0"
     style="fill:#c2fbf7;stroke:#c2fbf7;stroke-width:1.22254181" />
  <path
     d="m 1718.2326,700.5947 12.9541,134.39864 225.8869,-129.54086 z"
     id="path28"
     inkscape:connector-curvature="0"
     style="fill:#c2fef7;stroke:#c2fef7;stroke-width:1.22254181" />
  <path
     d="M 1882.5876,72.321537 1764.3815,91.752666 1957.0736,227.77057 Z"
     id="path30"
     inkscape:connector-curvature="0"
     style="fill:#d6e2f5;stroke:#d6e2f5;stroke-width:1.22254181" />
  <path
     d="m 1764.3815,91.752666 -45.3393,156.258664 238.0314,-20.24076 z"
     id="path32"
     inkscape:connector-curvature="0"
     style="fill:#d2e4f7;stroke:#d2e4f7;stroke-width:1.22254181" />
  <path
     d="m 1916.592,-70.173407 -34.0044,142.494944 74.486,155.449033 z"
     id="path34"
     inkscape:connector-curvature="0"
     style="fill:#d8e1f4;stroke:#d8e1f4;stroke-width:1.22254181" />
  <path
     d="m 1880.1587,330.59362 75.2956,176.49942 1.6193,-279.32247 z"
     id="path36"
     inkscape:connector-curvature="0"
     style="fill:#c6eaf3;stroke:#c6eaf3;stroke-width:1.22254181" />
  <path
     d="m 1955.4543,507.09304 1.6193,198.35944 0,-477.68191 z"
     id="path38"
     inkscape:connector-curvature="0"
     style="fill:#c3f1f3;stroke:#c3f1f3;stroke-width:1.22254181" />
  <path
     d="m 1760.3334,996.10978 171.6416,76.10522 26.7178,-234.79277 z"
     id="path40"
     inkscape:connector-curvature="0"
     style="fill:#c2fff4;stroke:#c2fff4;stroke-width:1.22254181" />
  <path
     d="m 1957.0736,705.45248 -225.8869,129.54086 227.5061,2.42889 z"
     id="path42"
     inkscape:connector-curvature="0"
     style="fill:#c2fef4;stroke:#c2fef4;stroke-width:1.22254181" />
  <path
     d="m 1731.1867,834.99334 29.1467,161.11644 198.3594,-158.68755 z"
     id="path44"
     inkscape:connector-curvature="0"
     style="fill:#c2fef6;stroke:#c2fef6;stroke-width:1.22254181" />
  <path
     d="m 1931.975,1072.215 10.5252,64.7705 16.1926,-299.56327 z"
     id="path46"
     inkscape:connector-curvature="0"
     style="fill:#c2fff0;stroke:#c2fff0;stroke-width:1.22254181" />
  <path
     d="m 1719.0422,248.01133 161.1165,82.58229 76.9149,-102.82305 z"
     id="path48"
     inkscape:connector-curvature="0"
     style="fill:#cce7f6;stroke:#cce7f6;stroke-width:1.22254181" />
  <path
     d="M 1774.9067,409.12777 1745.76,541.90715 1955.4543,507.09304 Z"
     id="path50"
     inkscape:connector-curvature="0"
     style="fill:#c2f1f7;stroke:#c2f1f7;stroke-width:1.22254181" />
  <path
     d="m 981.46897,1179.0862 -245.318,29.9564 402.38633,-16.1926 z"
     id="path52"
     inkscape:connector-curvature="0"
     style="fill:#c2f5f5;stroke:#c2f5f5;stroke-width:1.22254181" />
  <path
     d="m 1931.975,1072.215 -209.6942,117.3964 220.2194,-52.6259 z"
     id="path54"
     inkscape:connector-curvature="0"
     style="fill:#c2ffed;stroke:#c2ffed;stroke-width:1.22254181" />
  <path
     d="M 1760.3334,996.10978 1722.2808,1189.6114 1931.975,1072.215 Z"
     id="path56"
     inkscape:connector-curvature="0"
     style="fill:#c2fff1;stroke:#c2fff1;stroke-width:1.22254181" />
  <path
     d="m 1728.7578,-85.556384 35.6237,177.30905 118.2061,-19.431129 z"
     id="path58"
     inkscape:connector-curvature="0"
     style="fill:#dae1f8;stroke:#dae1f8;stroke-width:1.22254181" />
  <path
     d="M 1728.7578,-85.556384 1882.5876,72.321537 1916.592,-70.173407 Z"
     id="path60"
     inkscape:connector-curvature="0"
     style="fill:#dde2f6;stroke:#dde2f6;stroke-width:1.22254181" />
  <path
     d="m 1310.9885,1169.3707 -172.4512,23.4793 275.2743,-13.7638 z"
     id="path62"
     inkscape:connector-curvature="0"
     style="fill:#c2fef5;stroke:#c2fef5;stroke-width:1.22254181" />
  <path
     d="m 1719.0422,248.01133 55.8645,161.11644 105.252,-78.53415 z"
     id="path64"
     inkscape:connector-curvature="0"
     style="fill:#c8e9f8;stroke:#c8e9f8;stroke-width:1.22254181" />
  <path
     d="m 1731.1867,834.99334 -116.5868,43.72004 145.7335,117.3964 z"
     id="path66"
     inkscape:connector-curvature="0"
     style="fill:#c2fff9;stroke:#c2fff9;stroke-width:1.22254181" />
  <path
     d="m 1632.4118,1053.5935 89.869,136.0179 38.0526,-193.50162 z"
     id="path68"
     inkscape:connector-curvature="0"
     style="fill:#c2fff4;stroke:#c2fff4;stroke-width:1.22254181" />
  <path
     d="m 1591.1206,171.90607 127.9216,76.10526 45.3393,-156.258664 z"
     id="path70"
     inkscape:connector-curvature="0"
     style="fill:#d3e4fb;stroke:#d3e4fb;stroke-width:1.22254181" />
  <path
     d="m 1728.7578,-85.556384 -139.2564,167.593486 174.8801,9.715564 z"
     id="path72"
     inkscape:connector-curvature="0"
     style="fill:#dae1fb;stroke:#dae1fb;stroke-width:1.22254181" />
  <path
     d="M 1581.4051,384.02923 1745.76,541.90715 1774.9067,409.12777 Z"
     id="path74"
     inkscape:connector-curvature="0"
     style="fill:#c3effa;stroke:#c3effa;stroke-width:1.22254181" />
  <path
     d="m 1719.0422,248.01133 -137.6371,136.0179 193.5016,25.09854 z"
     id="path76"
     inkscape:connector-curvature="0"
     style="fill:#c6eafb;stroke:#c6eafb;stroke-width:1.22254181" />
  <path
     d="M 1621.8866,-105.79714 1589.5014,82.037102 1728.7578,-85.556384 Z"
     id="path78"
     inkscape:connector-curvature="0"
     style="fill:#dde2fc;stroke:#dde2fc;stroke-width:1.22254181" />
  <path
     d="m 1581.4051,384.02923 -29.1467,155.44903 193.5016,2.42889 z"
     id="path80"
     inkscape:connector-curvature="0"
     style="fill:#c2f1fd;stroke:#c2f1fd;stroke-width:1.22254181" />
  <path
     d="m 1578.1666,698.16581 140.066,2.42889 27.5274,-158.68755 z"
     id="path82"
     inkscape:connector-curvature="0"
     style="fill:#c2fbfb;stroke:#c2fbfb;stroke-width:1.22254181" />
  <path
     d="M 1552.2584,539.47826 1578.1666,698.16581 1745.76,541.90715 Z"
     id="path84"
     inkscape:connector-curvature="0"
     style="fill:#c2f8fd;stroke:#c2f8fd;stroke-width:1.22254181" />
  <path
     d="m 1614.5999,878.71338 17.8119,174.88012 127.9216,-57.48372 z"
     id="path86"
     inkscape:connector-curvature="0"
     style="fill:#c2fffa;stroke:#c2fffa;stroke-width:1.22254181" />
  <path
     d="m 1589.5014,82.037102 1.6192,89.868968 173.2609,-80.153404 z"
     id="path88"
     inkscape:connector-curvature="0"
     style="fill:#d6e2fc;stroke:#d6e2fc;stroke-width:1.22254181" />
  <path
     d="m 956.37043,-156.80386 288.22837,63.151172 200.7884,-50.197082 z"
     id="path90"
     inkscape:connector-curvature="0"
     style="fill:#e1e0ff;stroke:#e1e0ff;stroke-width:1.22254181" />
  <path
     d="m 1718.2326,700.5947 -140.066,-2.42889 153.0201,136.82753 z"
     id="path92"
     inkscape:connector-curvature="0"
     style="fill:#c2fefb;stroke:#c2fefb;stroke-width:1.22254181" />
  <path
     d="m 1578.1666,698.16581 36.4333,180.54757 116.5868,-43.72004 z"
     id="path94"
     inkscape:connector-curvature="0"
     style="fill:#c2fefc;stroke:#c2fefc;stroke-width:1.22254181" />
  <path
     d="m 1632.4118,1053.5935 -59.103,170.0224 148.972,-34.0045 z"
     id="path96"
     inkscape:connector-curvature="0"
     style="fill:#c2fff3;stroke:#c2fff3;stroke-width:1.22254181" />
  <path
     d="m 1591.1206,171.90607 -9.7155,212.12316 137.6371,-136.0179 z"
     id="path98"
     inkscape:connector-curvature="0"
     style="fill:#cce7fd;stroke:#cce7fd;stroke-width:1.22254181" />
  <path
     d="m 1445.3872,-143.84977 -29.9564,217.790568 174.0706,8.096304 z"
     id="path100"
     inkscape:connector-curvature="0"
     style="fill:#dbe1fe;stroke:#dbe1fe;stroke-width:1.22254181" />
  <path
     d="m 1447.8161,231.81872 133.589,152.21051 9.7155,-212.12316 z"
     id="path102"
     inkscape:connector-curvature="0"
     style="fill:#cce7fe;stroke:#cce7fe;stroke-width:1.22254181" />
  <path
     d="m 1578.1666,698.16581 -118.2061,119.82529 154.6394,60.72228 z"
     id="path104"
     inkscape:connector-curvature="0"
     style="fill:#c2fefe;stroke:#c2fefe;stroke-width:1.22254181" />
  <path
     d="m 1445.3872,-143.84977 144.1142,225.886872 32.3852,-187.834242 z"
     id="path106"
     inkscape:connector-curvature="0"
     style="fill:#dee2fe;stroke:#dee2fe;stroke-width:1.22254181" />
  <path
     d="m 1614.5999,878.71338 -184.5957,173.26092 202.4076,1.6192 z"
     id="path108"
     inkscape:connector-curvature="0"
     style="fill:#c2fffc;stroke:#c2fffc;stroke-width:1.22254181" />
  <path
     d="m 1430.0042,1051.9743 143.3046,171.6416 59.103,-170.0224 z"
     id="path110"
     inkscape:connector-curvature="0"
     style="fill:#c2fff7;stroke:#c2fff7;stroke-width:1.22254181" />
  <path
     d="m 1430.0042,1051.9743 -16.1926,127.1119 159.4972,44.5297 z"
     id="path112"
     inkscape:connector-curvature="0"
     style="fill:#c2fef6;stroke:#c2fef6;stroke-width:1.22254181" />
  <path
     d="m 1552.2584,539.47826 -80.1534,45.3393 106.0616,113.34825 z"
     id="path114"
     inkscape:connector-curvature="0"
     style="fill:#c2f8fe;stroke:#c2f8fe;stroke-width:1.22254181" />
  <path
     d="m 1459.9605,817.9911 -29.9563,233.9832 184.5957,-173.26092 z"
     id="path116"
     inkscape:connector-curvature="0"
     style="fill:#c2fefd;stroke:#c2fefd;stroke-width:1.22254181" />
  <path
     d="m 956.37043,-156.80386 168.40307,63.151172 119.8253,0 z"
     id="path118"
     inkscape:connector-curvature="0"
     style="fill:#e1deff;stroke:#e1deff;stroke-width:1.22254181" />
  <path
     d="m 1472.105,584.81756 -20.2408,108.49047 126.3024,4.85778 z"
     id="path120"
     inkscape:connector-curvature="0"
     style="fill:#c2fbfe;stroke:#c2fbfe;stroke-width:1.22254181" />
  <path
     d="m 1451.8642,693.30803 8.0963,124.68307 118.2061,-119.82529 z"
     id="path122"
     inkscape:connector-curvature="0"
     style="fill:#c2fdfe;stroke:#c2fdfe;stroke-width:1.22254181" />
  <path
     d="m 1395.9997,387.26775 156.2587,152.21051 29.1467,-155.44903 z"
     id="path124"
     inkscape:connector-curvature="0"
     style="fill:#c2eefe;stroke:#c2eefe;stroke-width:1.22254181" />
  <path
     d="m 1447.8161,231.81872 -51.8164,155.44903 185.4054,-3.23852 z"
     id="path126"
     inkscape:connector-curvature="0"
     style="fill:#c7e9fe;stroke:#c7e9fe;stroke-width:1.22254181" />
  <path
     d="m 1589.5014,82.037102 -174.0706,-8.096304 175.6898,97.965272 z"
     id="path128"
     inkscape:connector-curvature="0"
     style="fill:#d7e2fe;stroke:#d7e2fe;stroke-width:1.22254181" />
  <path
     d="m 1415.4308,73.940798 32.3853,157.877922 143.3045,-59.91265 z"
     id="path130"
     inkscape:connector-curvature="0"
     style="fill:#d3e3fe;stroke:#d3e3fe;stroke-width:1.22254181" />
  <path
     d="m 1395.9997,387.26775 76.1053,197.54981 80.1534,-45.3393 z"
     id="path132"
     inkscape:connector-curvature="0"
     style="fill:#c2f1fe;stroke:#c2f1fe;stroke-width:1.22254181" />
  <path
     d="m 1244.5988,-93.652688 3.2386,127.111968 167.5934,40.481518 z"
     id="path134"
     inkscape:connector-curvature="0"
     style="fill:#dbe0ff;stroke:#dbe0ff;stroke-width:1.22254181" />
  <path
     d="m 1244.5988,-93.652688 170.832,167.593486 29.9564,-217.790568 z"
     id="path136"
     inkscape:connector-curvature="0"
     style="fill:#dee1ff;stroke:#dee1ff;stroke-width:1.22254181" />
  <path
     d="m 1314.2271,1007.4446 115.7771,44.5297 29.9563,-233.9832 z"
     id="path138"
     inkscape:connector-curvature="0"
     style="fill:#c2fefe;stroke:#c2fefe;stroke-width:1.22254181" />
  <path
     d="m 1261.6011,817.18147 52.626,190.26313 145.7334,-189.4535 z"
     id="path140"
     inkscape:connector-curvature="0"
     style="fill:#c2fdfe;stroke:#c2fdfe;stroke-width:1.22254181" />
  <path
     d="M 1451.8642,693.30803 1309.3693,663.3517 1459.9605,817.9911 Z"
     id="path142"
     inkscape:connector-curvature="0"
     style="fill:#c2fdff;stroke:#c2fdff;stroke-width:1.22254181" />
  <path
     d="m 1309.3693,663.3517 -47.7682,153.82977 198.3594,0.80963 z"
     id="path144"
     inkscape:connector-curvature="0"
     style="fill:#c2fcfe;stroke:#c2fcfe;stroke-width:1.22254181" />
  <path
     d="m 1395.9997,387.26775 -159.4972,108.49047 235.6025,89.05934 z"
     id="path146"
     inkscape:connector-curvature="0"
     style="fill:#c2f0ff;stroke:#c2f0ff;stroke-width:1.22254181" />
  <path
     d="m 1236.5025,495.75822 72.8668,167.59348 162.7357,-78.53414 z"
     id="path148"
     inkscape:connector-curvature="0"
     style="fill:#c2f6ff;stroke:#c2f6ff;stroke-width:1.22254181" />
  <path
     d="m 1309.3693,663.3517 142.4949,29.95633 20.2408,-108.49047 z"
     id="path150"
     inkscape:connector-curvature="0"
     style="fill:#c2faff;stroke:#c2faff;stroke-width:1.22254181" />
  <path
     d="M 1415.4308,73.940798 1244.5988,218.055 1447.8161,231.81872 Z"
     id="path152"
     inkscape:connector-curvature="0"
     style="fill:#d2e3ff;stroke:#d2e3ff;stroke-width:1.22254181" />
  <path
     d="m 1310.9885,1169.3707 102.8231,9.7155 16.1926,-127.1119 z"
     id="path154"
     inkscape:connector-curvature="0"
     style="fill:#c2fef7;stroke:#c2fef7;stroke-width:1.22254181" />
  <path
     d="m 1244.5988,218.055 151.4009,169.21275 51.8164,-155.44903 z"
     id="path156"
     inkscape:connector-curvature="0"
     style="fill:#cbe7ff;stroke:#cbe7ff;stroke-width:1.22254181" />
  <path
     d="m 1244.5988,218.055 -21.0503,129.54086 172.4512,39.67189 z"
     id="path158"
     inkscape:connector-curvature="0"
     style="fill:#c8e8ff;stroke:#c8e8ff;stroke-width:1.22254181" />
  <path
     d="m 1314.2271,1007.4446 -3.2386,161.9261 119.0157,-117.3964 z"
     id="path160"
     inkscape:connector-curvature="0"
     style="fill:#c2fef9;stroke:#c2fef9;stroke-width:1.22254181" />
  <path
     d="M 1247.8374,33.45928 1244.5988,218.055 1415.4308,73.940798 Z"
     id="path162"
     inkscape:connector-curvature="0"
     style="fill:#d6e0ff;stroke:#d6e0ff;stroke-width:1.22254181" />
  <path
     d="m 1223.5485,347.59586 12.954,148.16236 159.4972,-108.49047 z"
     id="path164"
     inkscape:connector-curvature="0"
     style="fill:#c2ebff;stroke:#c2ebff;stroke-width:1.22254181" />
  <path
     d="m 1236.5025,495.75822 -122.2541,6.47704 195.1209,161.11644 z"
     id="path166"
     inkscape:connector-curvature="0"
     style="fill:#c2f3ff;stroke:#c2f3ff;stroke-width:1.22254181" />
  <path
     d="m 1114.2484,502.23526 -27.5275,223.45798 222.6484,-62.34154 z"
     id="path168"
     inkscape:connector-curvature="0"
     style="fill:#c2f8ff;stroke:#c2f8ff;stroke-width:1.22254181" />
  <path
     d="m 1086.7209,725.69324 174.8802,91.48823 47.7682,-153.82977 z"
     id="path170"
     inkscape:connector-curvature="0"
     style="fill:#c2fcff;stroke:#c2fcff;stroke-width:1.22254181" />
  <path
     d="m 1123.1543,996.10978 15.383,196.74022 172.4512,-23.4793 z"
     id="path172"
     inkscape:connector-curvature="0"
     style="fill:#c2fdf8;stroke:#c2fdf8;stroke-width:1.22254181" />
  <path
     d="m 1261.6011,817.18147 -139.2564,58.29339 191.8824,131.96974 z"
     id="path174"
     inkscape:connector-curvature="0"
     style="fill:#c2fdff;stroke:#c2fdff;stroke-width:1.22254181" />
  <path
     d="m 1122.3447,875.47486 0.8096,120.63492 191.0728,11.33482 z"
     id="path176"
     inkscape:connector-curvature="0"
     style="fill:#c2fdfe;stroke:#c2fdfe;stroke-width:1.22254181" />
  <path
     d="m 1123.1543,996.10978 187.8342,173.26092 3.2386,-161.9261 z"
     id="path178"
     inkscape:connector-curvature="0"
     style="fill:#c2fefb;stroke:#c2fefb;stroke-width:1.22254181" />
  <path
     d="m 1223.5485,347.59586 -109.3001,154.6394 122.2541,-6.47704 z"
     id="path180"
     inkscape:connector-curvature="0"
     style="fill:#c2edff;stroke:#c2edff;stroke-width:1.22254181" />
  <path
     d="m 1124.7735,-93.652688 24.289,123.063816 95.5363,-123.063816 z"
     id="path182"
     inkscape:connector-curvature="0"
     style="fill:#dedfff;stroke:#dedfff;stroke-width:1.22254181" />
  <path
     d="m 1115.058,328.16473 108.4905,19.43113 21.0503,-129.54086 z"
     id="path184"
     inkscape:connector-curvature="0"
     style="fill:#c9e6ff;stroke:#c9e6ff;stroke-width:1.22254181" />
  <path
     d="M 1136.1084,199.4335 1115.058,328.16473 1244.5988,218.055 Z"
     id="path186"
     inkscape:connector-curvature="0"
     style="fill:#cde4ff;stroke:#cde4ff;stroke-width:1.22254181" />
  <path
     d="m 1244.5988,-93.652688 -95.5363,123.063816 98.7749,4.048152 z"
     id="path188"
     inkscape:connector-curvature="0"
     style="fill:#dce0ff;stroke:#dce0ff;stroke-width:1.22254181" />
  <path
     d="m 1136.1084,199.4335 108.4904,18.6215 3.2386,-184.59572 z"
     id="path190"
     inkscape:connector-curvature="0"
     style="fill:#d4e1ff;stroke:#d4e1ff;stroke-width:1.22254181" />
  <path
     d="M 1149.0625,29.411128 1136.1084,199.4335 1247.8374,33.45928 Z"
     id="path192"
     inkscape:connector-curvature="0"
     style="fill:#d8dfff;stroke:#d8dfff;stroke-width:1.22254181" />
  <path
     d="m 1086.7209,725.69324 35.6238,149.78162 139.2564,-58.29339 z"
     id="path194"
     inkscape:connector-curvature="0"
     style="fill:#c2fcff;stroke:#c2fcff;stroke-width:1.22254181" />
  <path
     d="m 1115.058,328.16473 -0.8096,174.07053 109.3001,-154.6394 z"
     id="path196"
     inkscape:connector-curvature="0"
     style="fill:#c2e9ff;stroke:#c2e9ff;stroke-width:1.22254181" />
  <path
     d="m 975.80156,528.14343 110.91934,197.54981 27.5275,-223.45798 z"
     id="path198"
     inkscape:connector-curvature="0"
     style="fill:#c2f1ff;stroke:#c2f1ff;stroke-width:1.22254181" />
  <path
     d="m 945.0356,408.31814 169.2128,93.91712 0.8096,-174.07053 z"
     id="path200"
     inkscape:connector-curvature="0"
     style="fill:#c2e7ff;stroke:#c2e7ff;stroke-width:1.22254181" />
  <path
     d="M 964.46673,201.8624 1115.058,328.16473 1136.1084,199.4335 Z"
     id="path202"
     inkscape:connector-curvature="0"
     style="fill:#cde1ff;stroke:#cde1ff;stroke-width:1.22254181" />
  <path
     d="m 946.65487,100.6586 17.81186,101.2038 171.64167,-2.4289 z"
     id="path204"
     inkscape:connector-curvature="0"
     style="fill:#d2dbff;stroke:#d2dbff;stroke-width:1.22254181" />
  <path
     d="M 1123.1543,996.10978 981.46897,1034.1624 1138.5373,1192.85 Z"
     id="path206"
     inkscape:connector-curvature="0"
     style="fill:#c2fafa;stroke:#c2fafa;stroke-width:1.22254181" />
  <path
     d="m 981.46897,1034.1624 0,144.9238 157.06833,13.7638 z"
     id="path208"
     inkscape:connector-curvature="0"
     style="fill:#c2f8f7;stroke:#c2f8f7;stroke-width:1.22254181" />
  <path
     d="m 946.65487,100.6586 189.45353,98.7749 12.9541,-170.022372 z"
     id="path210"
     inkscape:connector-curvature="0"
     style="fill:#d6dcff;stroke:#d6dcff;stroke-width:1.22254181" />
  <path
     d="M 1124.7735,-93.652688 946.65487,100.6586 1149.0625,29.411128 Z"
     id="path212"
     inkscape:connector-curvature="0"
     style="fill:#dadcff;stroke:#dadcff;stroke-width:1.22254181" />
  <path
     d="m 1086.7209,725.69324 -100.3941,147.35273 136.0179,2.42889 z"
     id="path214"
     inkscape:connector-curvature="0"
     style="fill:#c2f8ff;stroke:#c2f8ff;stroke-width:1.22254181" />
  <path
     d="m 1122.3447,875.47486 -136.0179,-2.42889 136.8275,123.06381 z"
     id="path216"
     inkscape:connector-curvature="0"
     style="fill:#c2f9fe;stroke:#c2f9fe;stroke-width:1.22254181" />
  <path
     d="M 956.37043,-156.80386 946.65487,100.6586 1124.7735,-93.652688 Z"
     id="path218"
     inkscape:connector-curvature="0"
     style="fill:#ddd9ff;stroke:#ddd9ff;stroke-width:1.22254181" />
  <path
     d="m 945.0356,408.31814 30.76596,119.82529 138.44684,-25.90817 z"
     id="path220"
     inkscape:connector-curvature="0"
     style="fill:#c2e9ff;stroke:#c2e9ff;stroke-width:1.22254181" />
  <path
     d="m 986.3268,873.04597 -4.85783,161.11643 141.68533,-38.05262 z"
     id="path222"
     inkscape:connector-curvature="0"
     style="fill:#c2f7fe;stroke:#c2f7fe;stroke-width:1.22254181" />
  <path
     d="m 975.80156,528.14343 -49.38745,202.40759 160.30679,-4.85778 z"
     id="path224"
     inkscape:connector-curvature="0"
     style="fill:#c2f3ff;stroke:#c2f3ff;stroke-width:1.22254181" />
  <path
     d="M 964.46673,201.8624 945.0356,408.31814 1115.058,328.16473 Z"
     id="path226"
     inkscape:connector-curvature="0"
     style="fill:#c8e1ff;stroke:#c8e1ff;stroke-width:1.22254181" />
  <path
     d="M 926.41411,730.55102 986.3268,873.04597 1086.7209,725.69324 Z"
     id="path228"
     inkscape:connector-curvature="0"
     style="fill:#c2f5ff;stroke:#c2f5ff;stroke-width:1.22254181" />
  <path
     d="m 600.9427,-140.61125 137.63716,72.866734 217.79057,-89.059344 z"
     id="path230"
     inkscape:connector-curvature="0"
     style="fill:#dfcfff;stroke:#dfcfff;stroke-width:1.22254181" />
  <path
     d="m 808.20807,51.271148 138.4468,49.387452 9.71556,-257.46246 z"
     id="path232"
     inkscape:connector-curvature="0"
     style="fill:#dbd5ff;stroke:#dbd5ff;stroke-width:1.22254181" />
  <path
     d="M 738.57986,-67.744516 808.20807,51.271148 956.37043,-156.80386 Z"
     id="path234"
     inkscape:connector-curvature="0"
     style="fill:#ddd2ff;stroke:#ddd2ff;stroke-width:1.22254181" />
  <path
     d="M 810.63696,234.24761 945.0356,408.31814 964.46673,201.8624 Z"
     id="path236"
     inkscape:connector-curvature="0"
     style="fill:#cadbff;stroke:#cadbff;stroke-width:1.22254181" />
  <path
     d="m 833.30661,741.88585 93.1075,-11.33483 49.38745,-202.40759 z"
     id="path238"
     inkscape:connector-curvature="0"
     style="fill:#c2f0ff;stroke:#c2f0ff;stroke-width:1.22254181" />
  <path
     d="M 738.57986,519.2375 833.30661,741.88585 975.80156,528.14343 Z"
     id="path240"
     inkscape:connector-curvature="0"
     style="fill:#c2e9ff;stroke:#c2e9ff;stroke-width:1.22254181" />
  <path
     d="m 981.46897,1034.1624 -178.11868,25.0986 178.11868,119.8252 z"
     id="path242"
     inkscape:connector-curvature="0"
     style="fill:#c2f3f9;stroke:#c2f3f9;stroke-width:1.22254181" />
  <path
     d="m 833.30661,741.88585 -94.72675,72.86673 247.74694,58.29339 z"
     id="path244"
     inkscape:connector-curvature="0"
     style="fill:#c2efff;stroke:#c2efff;stroke-width:1.22254181" />
  <path
     d="m 803.35029,1059.261 178.11868,-25.0986 4.85783,-161.11643 z"
     id="path246"
     inkscape:connector-curvature="0"
     style="fill:#c2f3fe;stroke:#c2f3fe;stroke-width:1.22254181" />
  <path
     d="M 738.57986,814.75258 803.35029,1059.261 986.3268,873.04597 Z"
     id="path248"
     inkscape:connector-curvature="0"
     style="fill:#c2effe;stroke:#c2effe;stroke-width:1.22254181" />
  <path
     d="m 926.41411,730.55102 -93.1075,11.33483 153.02019,131.16012 z"
     id="path250"
     inkscape:connector-curvature="0"
     style="fill:#c2f1ff;stroke:#c2f1ff;stroke-width:1.22254181" />
  <path
     d="m 810.63696,234.24761 -15.38297,162.7357 149.78161,11.33483 z"
     id="path252"
     inkscape:connector-curvature="0"
     style="fill:#c5dbff;stroke:#c5dbff;stroke-width:1.22254181" />
  <path
     d="m 803.35029,1059.261 -67.19932,149.7816 245.318,-29.9564 z"
     id="path254"
     inkscape:connector-curvature="0"
     style="fill:#c3f0f7;stroke:#c3f0f7;stroke-width:1.22254181" />
  <path
     d="M 945.0356,408.31814 795.25399,396.98331 975.80156,528.14343 Z"
     id="path256"
     inkscape:connector-curvature="0"
     style="fill:#c2e2ff;stroke:#c2e2ff;stroke-width:1.22254181" />
  <path
     d="m 795.25399,396.98331 -56.67413,122.25419 237.2217,8.90593 z"
     id="path258"
     inkscape:connector-curvature="0"
     style="fill:#c2e2ff;stroke:#c2e2ff;stroke-width:1.22254181" />
  <path
     d="M 946.65487,100.6586 810.63696,234.24761 964.46673,201.8624 Z"
     id="path260"
     inkscape:connector-curvature="0"
     style="fill:#d1d7ff;stroke:#d1d7ff;stroke-width:1.22254181" />
  <path
     d="M 808.20807,51.271148 810.63696,234.24761 946.65487,100.6586 Z"
     id="path262"
     inkscape:connector-curvature="0"
     style="fill:#d4d3ff;stroke:#d4d3ff;stroke-width:1.22254181" />
  <path
     d="m 738.57986,814.75258 -75.29562,194.31132 140.06605,50.1971 z"
     id="path264"
     inkscape:connector-curvature="0"
     style="fill:#c3ecfe;stroke:#c3ecfe;stroke-width:1.22254181" />
  <path
     d="m 646.282,253.67874 148.97199,143.30457 15.38297,-162.7357 z"
     id="path266"
     inkscape:connector-curvature="0"
     style="fill:#c9d5ff;stroke:#c9d5ff;stroke-width:1.22254181" />
  <path
     d="M 808.20807,51.271148 643.85311,88.514144 810.63696,234.24761 Z"
     id="path268"
     inkscape:connector-curvature="0"
     style="fill:#d4cfff;stroke:#d4cfff;stroke-width:1.22254181" />
  <path
     d="M 738.57986,519.2375 612.27752,652.01688 833.30661,741.88585 Z"
     id="path270"
     inkscape:connector-curvature="0"
     style="fill:#c3e7ff;stroke:#c3e7ff;stroke-width:1.22254181" />
  <path
     d="m 612.27752,652.01688 126.30234,162.7357 94.72675,-72.86673 z"
     id="path272"
     inkscape:connector-curvature="0"
     style="fill:#c3eaff;stroke:#c3eaff;stroke-width:1.22254181" />
  <path
     d="m 663.28424,1009.0639 72.86673,199.9787 67.19932,-149.7816 z"
     id="path274"
     inkscape:connector-curvature="0"
     style="fill:#c3ecf9;stroke:#c3ecf9;stroke-width:1.22254181" />
  <path
     d="M 738.57986,-67.744516 643.85311,88.514144 808.20807,51.271148 Z"
     id="path276"
     inkscape:connector-curvature="0"
     style="fill:#d9cdff;stroke:#d9cdff;stroke-width:1.22254181" />
  <path
     d="M 643.85311,88.514144 646.282,253.67874 810.63696,234.24761 Z"
     id="path278"
     inkscape:connector-curvature="0"
     style="fill:#d1d0ff;stroke:#d1d0ff;stroke-width:1.22254181" />
  <path
     d="m 623.61235,849.56669 39.67189,159.49721 75.29562,-194.31132 z"
     id="path280"
     inkscape:connector-curvature="0"
     style="fill:#c6eaff;stroke:#c6eaff;stroke-width:1.22254181" />
  <path
     d="m 646.282,253.67874 -32.38521,158.68755 181.3572,-15.38298 z"
     id="path282"
     inkscape:connector-curvature="0"
     style="fill:#c7d5ff;stroke:#c7d5ff;stroke-width:1.22254181" />
  <path
     d="m 663.28424,1009.0639 -28.33707,191.8824 101.2038,8.0963 z"
     id="path284"
     inkscape:connector-curvature="0"
     style="fill:#c6eaf7;stroke:#c6eaf7;stroke-width:1.22254181" />
  <path
     d="m 665.71313,511.1412 72.86673,8.0963 56.67413,-122.25419 z"
     id="path286"
     inkscape:connector-curvature="0"
     style="fill:#c2ddff;stroke:#c2ddff;stroke-width:1.22254181" />
  <path
     d="M 613.89679,412.36629 665.71313,511.1412 795.25399,396.98331 Z"
     id="path288"
     inkscape:connector-curvature="0"
     style="fill:#c4daff;stroke:#c4daff;stroke-width:1.22254181" />
  <path
     d="m 612.27752,652.01688 11.33483,197.54981 114.96751,-34.81411 z"
     id="path290"
     inkscape:connector-curvature="0"
     style="fill:#c6e8ff;stroke:#c6e8ff;stroke-width:1.22254181" />
  <path
     d="m 600.9427,-140.61125 42.91041,229.125394 94.72675,-156.25866 z"
     id="path292"
     inkscape:connector-curvature="0"
     style="fill:#dfcbff;stroke:#dfcbff;stroke-width:1.22254181" />
  <path
     d="M 665.71313,511.1412 612.27752,652.01688 738.57986,519.2375 Z"
     id="path294"
     inkscape:connector-curvature="0"
     style="fill:#c5e1ff;stroke:#c5e1ff;stroke-width:1.22254181" />
  <path
     d="M 488.40408,-155.1846 430.11069,97.420078 600.9427,-140.61125 Z"
     id="path296"
     inkscape:connector-curvature="0"
     style="fill:#e6c7ff;stroke:#e6c7ff;stroke-width:1.22254181" />
  <path
     d="M 600.9427,-140.61125 430.11069,97.420078 643.85311,88.514144 Z"
     id="path298"
     inkscape:connector-curvature="0"
     style="fill:#e1c9ff;stroke:#e1c9ff;stroke-width:1.22254181" />
  <path
     d="M 643.85311,88.514144 506.21595,235.86687 646.282,253.67874 Z"
     id="path300"
     inkscape:connector-curvature="0"
     style="fill:#d6cdff;stroke:#d6cdff;stroke-width:1.22254181" />
  <path
     d="M 506.21595,235.86687 613.89679,412.36629 646.282,253.67874 Z"
     id="path302"
     inkscape:connector-curvature="0"
     style="fill:#d0d1ff;stroke:#d0d1ff;stroke-width:1.22254181" />
  <path
     d="m 492.45223,1006.635 142.49494,194.3113 28.33707,-191.8824 z"
     id="path304"
     inkscape:connector-curvature="0"
     style="fill:#cae8fa;stroke:#cae8fa;stroke-width:1.22254181" />
  <path
     d="m 623.61235,849.56669 -131.16012,157.06831 170.83201,2.4289 z"
     id="path306"
     inkscape:connector-curvature="0"
     style="fill:#cae8fe;stroke:#cae8fe;stroke-width:1.22254181" />
  <path
     d="M 613.89679,412.36629 413.10845,553.24197 665.71313,511.1412 Z"
     id="path308"
     inkscape:connector-curvature="0"
     style="fill:#cadaff;stroke:#cadaff;stroke-width:1.22254181" />
  <path
     d="M 413.10845,553.24197 612.27752,652.01688 665.71313,511.1412 Z"
     id="path310"
     inkscape:connector-curvature="0"
     style="fill:#cbdfff;stroke:#cbdfff;stroke-width:1.22254181" />
  <path
     d="m 612.27752,652.01688 -191.88239,8.90593 203.21722,188.64388 z"
     id="path312"
     inkscape:connector-curvature="0"
     style="fill:#cce6ff;stroke:#cce6ff;stroke-width:1.22254181" />
  <path
     d="m 420.39513,660.92281 20.24076,215.36168 182.97646,-26.7178 z"
     id="path314"
     inkscape:connector-curvature="0"
     style="fill:#cfe5ff;stroke:#cfe5ff;stroke-width:1.22254181" />
  <path
     d="m 492.45223,1006.635 -48.57782,198.3594 191.07276,-4.0481 z"
     id="path316"
     inkscape:connector-curvature="0"
     style="fill:#cee6f7;stroke:#cee6f7;stroke-width:1.22254181" />
  <path
     d="M 430.11069,97.420078 506.21595,235.86687 643.85311,88.514144 Z"
     id="path318"
     inkscape:connector-curvature="0"
     style="fill:#dcc9ff;stroke:#dcc9ff;stroke-width:1.22254181" />
  <path
     d="M 440.63589,876.28449 492.45223,1006.635 623.61235,849.56669 Z"
     id="path320"
     inkscape:connector-curvature="0"
     style="fill:#cde6fe;stroke:#cde6fe;stroke-width:1.22254181" />
  <path
     d="m 413.10845,409.9374 0,143.30457 200.78834,-140.87568 z"
     id="path322"
     inkscape:connector-curvature="0"
     style="fill:#ced6ff;stroke:#ced6ff;stroke-width:1.22254181" />
  <path
     d="m 413.10845,553.24197 7.28668,107.68084 191.88239,-8.90593 z"
     id="path324"
     inkscape:connector-curvature="0"
     style="fill:#cfe0ff;stroke:#cfe0ff;stroke-width:1.22254181" />
  <path
     d="m 506.21595,235.86687 -93.1075,174.07053 200.78834,2.42889 z"
     id="path326"
     inkscape:connector-curvature="0"
     style="fill:#d0d1ff;stroke:#d0d1ff;stroke-width:1.22254181" />
  <path
     d="M 420.39513,660.92281 332.95505,700.5947 440.63589,876.28449 Z"
     id="path328"
     inkscape:connector-curvature="0"
     style="fill:#d3e2ff;stroke:#d3e2ff;stroke-width:1.22254181" />
  <path
     d="m 332.95505,700.5947 -15.38298,121.44456 123.06382,54.24523 z"
     id="path330"
     inkscape:connector-curvature="0"
     style="fill:#d5e2ff;stroke:#d5e2ff;stroke-width:1.22254181" />
  <path
     d="m 260.89795,1169.3707 -102.01343,34.8141 284.98989,0.8096 z"
     id="path332"
     inkscape:connector-curvature="0"
     style="fill:#d8e1f5;stroke:#d8e1f5;stroke-width:1.22254181" />
  <path
     d="M 273.0424,26.172606 430.11069,97.420078 488.40408,-155.1846 Z"
     id="path334"
     inkscape:connector-curvature="0"
     style="fill:#e8c5ff;stroke:#e8c5ff;stroke-width:1.22254181" />
  <path
     d="M 269.80388,-147.08829 273.0424,26.172606 488.40408,-155.1846 Z"
     id="path336"
     inkscape:connector-curvature="0"
     style="fill:#eec3ff;stroke:#eec3ff;stroke-width:1.22254181" />
  <path
     d="m 292.47353,1068.1669 151.40088,136.8275 48.57782,-198.3594 z"
     id="path338"
     inkscape:connector-curvature="0"
     style="fill:#d3e4f9;stroke:#d3e4f9;stroke-width:1.22254181" />
  <path
     d="M 430.11069,97.420078 316.76244,203.48166 506.21595,235.86687 Z"
     id="path340"
     inkscape:connector-curvature="0"
     style="fill:#dfc8ff;stroke:#dfc8ff;stroke-width:1.22254181" />
  <path
     d="m 316.76244,203.48166 96.34601,206.45574 93.1075,-174.07053 z"
     id="path342"
     inkscape:connector-curvature="0"
     style="fill:#d8ccff;stroke:#d8ccff;stroke-width:1.22254181" />
  <path
     d="M 440.63589,876.28449 292.47353,1068.1669 492.45223,1006.635 Z"
     id="path344"
     inkscape:connector-curvature="0"
     style="fill:#d3e3fe;stroke:#d3e3fe;stroke-width:1.22254181" />
  <path
     d="m 270.61351,422.89149 142.49494,130.35048 0,-143.30457 z"
     id="path346"
     inkscape:connector-curvature="0"
     style="fill:#d4d3ff;stroke:#d4d3ff;stroke-width:1.22254181" />
  <path
     d="M 316.76244,203.48166 270.61351,422.89149 413.10845,409.9374 Z"
     id="path348"
     inkscape:connector-curvature="0"
     style="fill:#d8ccff;stroke:#d8ccff;stroke-width:1.22254181" />
  <path
     d="M 317.57207,822.03926 292.47353,1068.1669 440.63589,876.28449 Z"
     id="path350"
     inkscape:connector-curvature="0"
     style="fill:#d5e2fe;stroke:#d5e2fe;stroke-width:1.22254181" />
  <path
     d="m 292.47353,1068.1669 -31.57558,101.2038 182.97646,35.6237 z"
     id="path352"
     inkscape:connector-curvature="0"
     style="fill:#d7e2f7;stroke:#d7e2f7;stroke-width:1.22254181" />
  <path
     d="m 413.10845,553.24197 -140.87568,26.71781 148.16236,80.96303 z"
     id="path354"
     inkscape:connector-curvature="0"
     style="fill:#d4dbff;stroke:#d4dbff;stroke-width:1.22254181" />
  <path
     d="m 272.23277,579.95978 60.72228,120.63492 87.44008,-39.67189 z"
     id="path356"
     inkscape:connector-curvature="0"
     style="fill:#d6deff;stroke:#d6deff;stroke-width:1.22254181" />
  <path
     d="M 273.0424,26.172606 316.76244,203.48166 430.11069,97.420078 Z"
     id="path358"
     inkscape:connector-curvature="0"
     style="fill:#e6c3ff;stroke:#e6c3ff;stroke-width:1.22254181" />
  <path
     d="m 179.93491,975.05939 112.53862,93.10751 25.09854,-246.12764 z"
     id="path360"
     inkscape:connector-curvature="0"
     style="fill:#d9e1fe;stroke:#d9e1fe;stroke-width:1.22254181" />
  <path
     d="m 270.61351,422.89149 1.61926,157.06829 140.87568,-26.71781 z"
     id="path362"
     inkscape:connector-curvature="0"
     style="fill:#d6d5ff;stroke:#d6d5ff;stroke-width:1.22254181" />
  <path
     d="M 273.0424,26.172606 145.1208,62.605973 316.76244,203.48166 Z"
     id="path364"
     inkscape:connector-curvature="0"
     style="fill:#e9c2ff;stroke:#e9c2ff;stroke-width:1.22254181" />
  <path
     d="M 145.1208,62.605973 179.93491,231.81872 316.76244,203.48166 Z"
     id="path366"
     inkscape:connector-curvature="0"
     style="fill:#e6c5ff;stroke:#e6c5ff;stroke-width:1.22254181" />
  <path
     d="m 179.93491,231.81872 90.6786,191.07277 46.14893,-219.40983 z"
     id="path368"
     inkscape:connector-curvature="0"
     style="fill:#ddc9ff;stroke:#ddc9ff;stroke-width:1.22254181" />
  <path
     d="m 140.26302,888.42895 39.67189,86.63044 137.63716,-153.02013 z"
     id="path370"
     inkscape:connector-curvature="0"
     style="fill:#dae1ff;stroke:#dae1ff;stroke-width:1.22254181" />
  <path
     d="M 151.59785,673.8769 317.57207,822.03926 332.95505,700.5947 Z"
     id="path372"
     inkscape:connector-curvature="0"
     style="fill:#d9e0ff;stroke:#d9e0ff;stroke-width:1.22254181" />
  <path
     d="m 272.23277,579.95978 -120.63492,93.91712 181.3572,26.7178 z"
     id="path374"
     inkscape:connector-curvature="0"
     style="fill:#d9ddff;stroke:#d9ddff;stroke-width:1.22254181" />
  <path
     d="m 179.93491,231.81872 -50.19708,157.06829 140.87568,34.00448 z"
     id="path376"
     inkscape:connector-curvature="0"
     style="fill:#dcccff;stroke:#dcccff;stroke-width:1.22254181" />
  <path
     d="M 151.59785,673.8769 140.26302,888.42895 317.57207,822.03926 Z"
     id="path378"
     inkscape:connector-curvature="0"
     style="fill:#dae0ff;stroke:#dae0ff;stroke-width:1.22254181" />
  <path
     d="M 90.06594,-147.89792 145.1208,62.605973 269.80388,-147.08829 Z"
     id="path380"
     inkscape:connector-curvature="0"
     style="fill:#f3c2ff;stroke:#f3c2ff;stroke-width:1.22254181" />
  <path
     d="m 270.61351,422.89149 -146.5431,158.68755 148.16236,-1.61926 z"
     id="path382"
     inkscape:connector-curvature="0"
     style="fill:#d9d6ff;stroke:#d9d6ff;stroke-width:1.22254181" />
  <path
     d="M 269.80388,-147.08829 145.1208,62.605973 273.0424,26.172606 Z"
     id="path384"
     inkscape:connector-curvature="0"
     style="fill:#efc2ff;stroke:#efc2ff;stroke-width:1.22254181" />
  <path
     d="m 179.93491,975.05939 80.96304,194.31131 31.57558,-101.2038 z"
     id="path386"
     inkscape:connector-curvature="0"
     style="fill:#d9e1fa;stroke:#d9e1fa;stroke-width:1.22254181" />
  <path
     d="m 179.93491,975.05939 -21.05039,229.12541 102.01343,-34.8141 z"
     id="path388"
     inkscape:connector-curvature="0"
     style="fill:#dbe1f8;stroke:#dbe1f8;stroke-width:1.22254181" />
  <path
     d="m 129.73783,388.88701 -5.66742,192.69203 146.5431,-158.68755 z"
     id="path390"
     inkscape:connector-curvature="0"
     style="fill:#dad2ff;stroke:#dad2ff;stroke-width:1.22254181" />
  <path
     d="m 124.07041,581.57904 27.52744,92.29786 120.63492,-93.91712 z"
     id="path392"
     inkscape:connector-curvature="0"
     style="fill:#dbdbff;stroke:#dbdbff;stroke-width:1.22254181" />
  <path
     d="M 14.770315,-131.70531 2.625859,56.93856 90.06594,-147.89792 Z"
     id="path394"
     inkscape:connector-curvature="0"
     style="fill:#f7c2ff;stroke:#f7c2ff;stroke-width:1.22254181" />
  <path
     d="m 20.437727,494.94859 103.632683,86.63045 5.66742,-192.69203 z"
     id="path396"
     inkscape:connector-curvature="0"
     style="fill:#ddd3ff;stroke:#ddd3ff;stroke-width:1.22254181" />
  <path
     d="M 90.06594,-147.89792 2.625859,56.93856 145.1208,62.605973 Z"
     id="path398"
     inkscape:connector-curvature="0"
     style="fill:#f3c2ff;stroke:#f3c2ff;stroke-width:1.22254181" />
  <path
     d="M -51.619375,882.76153 140.26302,888.42895 151.59785,673.8769 Z"
     id="path400"
     inkscape:connector-curvature="0"
     style="fill:#dfe1ff;stroke:#dfe1ff;stroke-width:1.22254181" />
  <path
     d="M -50.809745,654.44577 -51.619375,882.76153 151.59785,673.8769 Z"
     id="path402"
     inkscape:connector-curvature="0"
     style="fill:#e0e0ff;stroke:#e0e0ff;stroke-width:1.22254181" />
  <path
     d="m 140.26302,888.42895 -161.926072,90.6786 201.597962,-4.04816 z"
     id="path404"
     inkscape:connector-curvature="0"
     style="fill:#dee2fe;stroke:#dee2fe;stroke-width:1.22254181" />
  <path
     d="m 18.008836,1209.0426 140.875684,-4.8578 21.05039,-229.12541 z"
     id="path406"
     inkscape:connector-curvature="0"
     style="fill:#dde2f7;stroke:#dde2f7;stroke-width:1.22254181" />
  <path
     d="M -21.663052,979.10755 18.008836,1209.0426 179.93491,975.05939 Z"
     id="path408"
     inkscape:connector-curvature="0"
     style="fill:#dfe2fb;stroke:#dfe2fb;stroke-width:1.22254181" />
  <path
     d="M 145.1208,62.605973 -12.757118,165.42903 179.93491,231.81872 Z"
     id="path410"
     inkscape:connector-curvature="0"
     style="fill:#eac4ff;stroke:#eac4ff;stroke-width:1.22254181" />
  <path
     d="M -12.757118,165.42903 129.73783,388.88701 179.93491,231.81872 Z"
     id="path412"
     inkscape:connector-curvature="0"
     style="fill:#e4c8ff;stroke:#e4c8ff;stroke-width:1.22254181" />
  <path
     d="M -12.757118,165.42903 -40.28455,422.89149 129.73783,388.88701 Z"
     id="path414"
     inkscape:connector-curvature="0"
     style="fill:#e2cbff;stroke:#e2cbff;stroke-width:1.22254181" />
  <path
     d="M 2.625859,56.93856 -12.757118,165.42903 145.1208,62.605973 Z"
     id="path416"
     inkscape:connector-curvature="0"
     style="fill:#f0c2ff;stroke:#f0c2ff;stroke-width:1.22254181" />
  <path
     d="M 124.07041,581.57904 -50.809745,654.44577 151.59785,673.8769 Z"
     id="path418"
     inkscape:connector-curvature="0"
     style="fill:#dedcff;stroke:#dedcff;stroke-width:1.22254181" />
  <path
     d="m -51.619375,882.76153 29.956323,96.34602 161.926072,-90.6786 z"
     id="path420"
     inkscape:connector-curvature="0"
     style="fill:#e0e1fe;stroke:#e0e1fe;stroke-width:1.22254181" />
  <path
     d="M -40.28455,422.89149 20.437727,494.94859 129.73783,388.88701 Z"
     id="path422"
     inkscape:connector-curvature="0"
     style="fill:#ded0ff;stroke:#ded0ff;stroke-width:1.22254181" />
  <path
     d="M 20.437727,494.94859 -50.809745,654.44577 124.07041,581.57904 Z"
     id="path424"
     inkscape:connector-curvature="0"
     style="fill:#dfd9ff;stroke:#dfd9ff;stroke-width:1.22254181" />
  <path
     d="M -21.663052,979.10755 -51.619375,882.76153 18.008836,1209.0426 Z"
     id="path426"
     inkscape:connector-curvature="0"
     style="fill:#e2e2fc;stroke:#e2e2fc;stroke-width:1.22254181" />
  <path
     d="M -40.28455,422.89149 -50.809745,654.44577 20.437727,494.94859 Z"
     id="path428"
     inkscape:connector-curvature="0"
     style="fill:#e0d6ff;stroke:#e0d6ff;stroke-width:1.22254181" />
  <path
     d="M -12.757118,165.42903 2.625859,56.93856 14.770315,-131.70531 Z"
     id="path430"
     inkscape:connector-curvature="0"
     style="fill:#f3c2ff;stroke:#f3c2ff;stroke-width:1.22254181" />
</svg>
